<?xml version="1.0" encoding="UTF-8"?>
<svg id="_Слой_1" data-name="Слой 1" xmlns="http://www.w3.org/2000/svg" version="1.1" xmlns:xlink="http://www.w3.org/1999/xlink" viewBox="0 0 1190.6 841.9">
  <defs>
    <style>
      .cls-1 {
        fill: url(#_Безымянный_градиент_104-15);
      }

      .cls-1, .cls-2, .cls-3, .cls-4, .cls-5, .cls-6, .cls-7, .cls-8, .cls-9, .cls-10, .cls-11, .cls-12, .cls-13, .cls-14, .cls-15, .cls-16, .cls-17, .cls-18, .cls-19, .cls-20, .cls-21, .cls-22 {
        stroke-width: 0px;
      }

      .cls-2 {
        fill: url(#_Безымянный_градиент_104-9);
      }

      .cls-3 {
        fill: url(#_Безымянный_градиент_104-14);
      }

      .cls-4 {
        fill: url(#_Безымянный_градиент_104-7);
      }

      .cls-5 {
        fill: url(#_Безымянный_градиент_104-21);
      }

      .cls-6 {
        fill: url(#_Безымянный_градиент_104-16);
      }

      .cls-7 {
        fill: url(#_Безымянный_градиент_104);
      }

      .cls-8 {
        fill: url(#_Безымянный_градиент_104-6);
      }

      .cls-9 {
        fill: url(#_Безымянный_градиент_104-12);
      }

      .cls-10 {
        fill: url(#_Безымянный_градиент_104-17);
      }

      .cls-11 {
        fill: url(#_Безымянный_градиент_104-5);
      }

      .cls-12 {
        fill: url(#_Безымянный_градиент_104-19);
      }

      .cls-13 {
        fill: url(#_Безымянный_градиент_104-10);
      }

      .cls-14 {
        fill: url(#_Безымянный_градиент_104-4);
      }

      .cls-15 {
        fill: url(#_Безымянный_градиент_104-8);
      }

      .cls-16 {
        fill: url(#_Безымянный_градиент_104-3);
      }

      .cls-17 {
        fill: url(#_Безымянный_градиент_104-20);
      }

      .cls-18 {
        fill: url(#_Безымянный_градиент_104-2);
      }

      .cls-19 {
        fill: url(#_Безымянный_градиент_104-11);
      }

      .cls-20 {
        fill: url(#_Безымянный_градиент_104-22);
      }

      .cls-21 {
        fill: url(#_Безымянный_градиент_104-13);
      }

      .cls-22 {
        fill: url(#_Безымянный_градиент_104-18);
      }
    </style>
    <linearGradient id="_Безымянный_градиент_104" data-name="Безымянный градиент 104" x1="1271" y1="120.3" x2="-62.4" y2="671.4" gradientUnits="userSpaceOnUse">
      <stop offset="0" stop-color="#ce9d67"/>
      <stop offset=".5" stop-color="#ffe1cd"/>
      <stop offset="1" stop-color="#ce9d67"/>
    </linearGradient>
    <linearGradient id="_Безымянный_градиент_104-2" data-name="Безымянный градиент 104" x1="1249.9" y1="69.3" x2="-83.5" y2="620.3" xlink:href="#_Безымянный_градиент_104"/>
    <linearGradient id="_Безымянный_градиент_104-3" data-name="Безымянный градиент 104" x1="1287.3" y1="159.7" x2="-46.1" y2="710.7" xlink:href="#_Безымянный_градиент_104"/>
    <linearGradient id="_Безымянный_градиент_104-4" data-name="Безымянный градиент 104" x1="1294.2" y1="176.4" x2="-39.2" y2="727.5" xlink:href="#_Безымянный_градиент_104"/>
    <linearGradient id="_Безымянный_градиент_104-5" data-name="Безымянный градиент 104" x1="1302.2" y1="195.7" x2="-31.2" y2="746.8" xlink:href="#_Безымянный_градиент_104"/>
    <linearGradient id="_Безымянный_градиент_104-6" data-name="Безымянный градиент 104" x1="1309.6" y1="213.6" x2="-23.9" y2="764.6" xlink:href="#_Безымянный_градиент_104"/>
    <linearGradient id="_Безымянный_градиент_104-7" data-name="Безымянный градиент 104" x1="1315" y1="226.8" x2="-18.4" y2="777.9" xlink:href="#_Безымянный_градиент_104"/>
    <linearGradient id="_Безымянный_градиент_104-8" data-name="Безымянный градиент 104" x1="1320.4" y1="239.9" x2="-13" y2="791" xlink:href="#_Безымянный_градиент_104"/>
    <linearGradient id="_Безымянный_градиент_104-9" data-name="Безымянный градиент 104" x1="1334.5" y1="273.9" x2="1.1" y2="824.9" xlink:href="#_Безымянный_градиент_104"/>
    <linearGradient id="_Безымянный_градиент_104-10" data-name="Безымянный градиент 104" x1="1339.5" y1="286.1" x2="6.1" y2="837.2" xlink:href="#_Безымянный_градиент_104"/>
    <linearGradient id="_Безымянный_градиент_104-11" data-name="Безымянный градиент 104" x1="1344.4" y1="297.8" x2="10.9" y2="848.8" xlink:href="#_Безымянный_градиент_104"/>
    <linearGradient id="_Безымянный_градиент_104-12" data-name="Безымянный градиент 104" x1="1351.4" y1="314.7" x2="17.9" y2="865.8" xlink:href="#_Безымянный_градиент_104"/>
    <linearGradient id="_Безымянный_градиент_104-13" data-name="Безымянный градиент 104" x1="1358.7" y1="332.6" x2="25.3" y2="883.6" xlink:href="#_Безымянный_градиент_104"/>
    <linearGradient id="_Безымянный_градиент_104-14" data-name="Безымянный градиент 104" x1="1366.1" y1="350.4" x2="32.7" y2="901.5" xlink:href="#_Безымянный_градиент_104"/>
    <linearGradient id="_Безымянный_градиент_104-15" data-name="Безымянный градиент 104" x1="1323.6" y1="247.5" x2="-9.8" y2="798.6" xlink:href="#_Безымянный_градиент_104"/>
    <linearGradient id="_Безымянный_градиент_104-16" data-name="Безымянный градиент 104" x1="1327.7" y1="257.6" x2="-5.7" y2="808.6" xlink:href="#_Безымянный_градиент_104"/>
    <linearGradient id="_Безымянный_градиент_104-17" data-name="Безымянный градиент 104" x1="1334" y1="272.8" x2=".6" y2="823.9" xlink:href="#_Безымянный_градиент_104"/>
    <linearGradient id="_Безымянный_градиент_104-18" data-name="Безымянный градиент 104" x1="1253.5" y1="78" x2="-79.9" y2="629" xlink:href="#_Безымянный_градиент_104"/>
    <linearGradient id="_Безымянный_градиент_104-19" data-name="Безымянный градиент 104" x1="1273.6" y1="126.6" x2="-59.8" y2="677.6" xlink:href="#_Безымянный_градиент_104"/>
    <linearGradient id="_Безымянный_градиент_104-20" data-name="Безымянный градиент 104" x1="1294.2" y1="176.4" x2="-39.2" y2="727.4" xlink:href="#_Безымянный_градиент_104"/>
    <linearGradient id="_Безымянный_градиент_104-21" data-name="Безымянный градиент 104" x1="1309.2" y1="212.7" x2="-24.2" y2="763.8" xlink:href="#_Безымянный_градиент_104"/>
    <linearGradient id="_Безымянный_градиент_104-22" data-name="Безымянный градиент 104" x1="1326.3" y1="254" x2="-7.2" y2="805" xlink:href="#_Безымянный_градиент_104"/>
  </defs>
  <g>
    <path class="cls-7" d="M355.2,465.5c-1,4.6-2.1,9.1-3.5,13.5-8.9,27.9-26.4,48.8-47.5,55.1v14.7c41.4-5,76-32.4,91.1-69.8,1.8-4.4,3.3-8.9,4.5-13.5h-44.6ZM345.6,519.5c8.7-11.2,15.6-25,20.1-40.5h14.9c-7.8,16.5-19.9,30.5-35,40.5Z"/>
    <path class="cls-18" d="M403.4,432.5c0-1.4-1.2-2.5-2.6-2.5h-59.5c-25.2,0-45.8-20.6-45.8-45.9v-37.8c-1.2-.1-2.5-.2-3.7-.3-.4,0-.8,0-1.2,0-2.9,0-5.8.3-8.6.9v37.2c0,25.3-20.5,45.8-45.7,45.9h-2.2c-.1,2.2-.2,4.5-.2,6.8s0,4.5.2,6.7h2c12.7,0,24.1,5.1,32.4,13.5,8.3,8.3,13.5,19.8,13.5,32.4v45.9c-33.2-6.3-58.9-48-58.9-98.6s30.3-99.4,67.5-99.4.8,0,1.3,0c26.4.7,49.2,23.9,59.8,57.1,1.4,4.3,2.6,8.8,3.5,13.5h44.6c-1.2-4.6-2.7-9.1-4.5-13.5-16.2-39.9-54.6-68.6-99.8-70.5v-26.7c0-1-.8-1.7-1.7-1.7h-10c-1,0-1.8.8-1.8,1.7v26.9c-58.2,4.4-104.2,53.2-104.2,112.5s46,108.1,104.2,112.5v85.8c0,1.5,1.2,2.7,2.7,2.7h8.1c1.5,0,2.7-1.2,2.7-2.7v-85.5h0v-13.6h0v-46.5c0-25.3,20.6-45.9,45.9-45.9h59.3c1.4,0,2.6-1.1,2.6-2.5,0-1.4,0-2.8,0-4.2s0-2.8,0-4.2ZM380.6,394.5h-14.9c-4.5-15.5-11.4-29.3-20.1-40.5,15.1,10,27.2,24,35,40.5ZM191.3,436.7c0-34.5,17.7-64.9,44.4-82.7-16,20.6-26,50.1-26,82.7s10,62.1,26,82.8c-26.7-17.8-44.4-48.3-44.4-82.8ZM288.8,461.9c-5.6-10.7-14.4-19.5-25.2-25.2,10.7-5.6,19.5-14.4,25.2-25.2,5.6,10.7,14.4,19.5,25.2,25.2-10.8,5.6-19.6,14.4-25.2,25.2Z"/>
  </g>
  <g>
    <g>
      <g>
        <path class="cls-16" d="M465.9,523.5h-.4c-1.3,0-2.2-.2-2.8-.7-.6-.4-1-1-1.1-1.7-.2-.7-.3-1.5-.3-2.6v-25.7c0-1.7.4-3,1-3.8.6-.8,1.7-1.2,3.3-1.2s1,0,1.2-.2c.2-.1.3-.5.4-1.2,0-.4,0-.7-.3-1-.2-.3-.5-.4-.9-.4-2.8.1-5.3.2-7.7.2h-16.3c-2.3,0-4.9,0-7.6-.2-.4,0-.7.1-.9.4s-.3.6-.3,1c0,.6.2,1,.3,1.2.2.1.5.2.9.2h.4c1.5,0,2.6.3,3.1.8.6.5.9,1.4.9,2.8s0,1.1,0,1.4c-.8,7.2-1.5,12.7-2.1,16.3-.6,3.7-1.4,6.6-2.3,8.9s-2.3,3.4-3.8,3.4-2.7-.9-2.7-2.5,0-1.1.3-1.5c.2-.4.4-.7.4-.8,0-.1-.3-.3-.6-.4-.3-.1-.7-.2-1.2-.2-1.3,0-2.5.5-3.3,1.4-.9.9-1.3,2.1-1.3,3.5s.7,3.2,2,4.3c1.3,1.1,3.2,1.7,5.6,1.7s5-1.4,6.6-4.3c1.6-2.9,2.8-6.6,3.6-11.2.8-4.6,1.6-10.9,2.4-18.9.1-1.3.3-2.3.6-2.9.3-.6.6-1,1.1-1.2.4-.2,1.1-.3,1.9-.3h9.1v30.5c0,1.1-.1,2-.3,2.6-.2.7-.5,1.3-1.1,1.7-.6.5-1.5.7-2.8.7s-1,0-1.2.2c-.2.1-.3.5-.4,1.2,0,.4,0,.7.3,1s.5.4.9.4c2.8-.1,5.5-.2,8.1-.2s4.9,0,7.7.2c.4,0,.7-.1.9-.4.2-.3.3-.6.3-1,0-.6-.1-1-.3-1.1-.2-.1-.5-.2-.9-.2Z"/>
        <path class="cls-14" d="M531.7,494.5c-1.5-3.2-3.7-5.8-6.7-7.8-3-1.9-6.5-2.9-10.7-2.9s-6.1.8-8.9,2.4c-2.9,1.6-5.2,3.9-7.1,7-1.9,3.1-3,6.7-3.2,10.9h-9.1v-11.5c0-1.1.1-2,.3-2.6.2-.7.5-1.2,1.1-1.7.6-.5,1.5-.7,2.8-.7s1,0,1.2-.2c.2-.1.4-.5.4-1.2,0-.4,0-.7-.3-1-.2-.3-.5-.4-.9-.4-2.8.1-5.5.2-8.1.2s-4.9,0-7.7-.2c-.3,0-.6.1-.8.4-.2.3-.3.6-.3,1,0,.6.1,1,.3,1.2.2.1.5.2.9.2h.4c1.3,0,2.2.2,2.8.7.6.4,1,1,1.1,1.7.2.7.3,1.5.3,2.6v25.7c0,1.1-.1,2-.3,2.6-.1.7-.5,1.3-1.1,1.7-.6.5-1.5.7-2.8.7s-1,0-1.2.2c-.2.1-.3.5-.4,1.2,0,.4,0,.7.3,1,.2.3.5.4.8.4,2.8-.1,5.4-.2,7.8-.2s5.2,0,8.1.2c.4,0,.7-.1.9-.4.2-.3.3-.6.3-1,0-.6-.2-1-.4-1.1-.2-.1-.5-.2-.9-.2h-.4c-1.3,0-2.2-.2-2.8-.7-.6-.4-1-1-1.1-1.7-.2-.7-.2-1.5-.3-2.6v-11.5h9.1c.1,3.7,1,7,2.5,10.1,1.5,3.1,3.7,5.6,6.6,7.4,2.9,1.9,6.3,2.8,10.2,2.8s6.4-.9,9.4-2.7c3-1.8,5.5-4.4,7.3-7.7,1.9-3.4,2.8-7.4,2.8-11.9s-.8-7.2-2.2-10.5ZM523.5,519.1c-1.8,3.6-4.9,5.4-9.2,5.4s-7.1-1.7-8.9-5.2c-1.8-3.4-2.7-7.9-2.7-13.4,0-12.9,3.9-19.3,11.6-19.3s7.2,1.7,9.1,5.1c1.9,3.4,2.8,7.8,2.8,13.2s-.9,10.6-2.8,14.1Z"/>
        <path class="cls-11" d="M573.7,507.5c-1.2-1.8-3-3.2-5.4-4.3-2.4-1-5.3-1.6-8.7-1.6s-4.3.2-6.7.6v-14.5h9.1c1.5,0,2.6.3,3.4.9.8.6,1.4,1.4,1.8,2.5.4,1.1.8,2.7,1.1,4.9,0,.4.3.6.7.9s1,.3,1.5.3.7-.1,1.1-.4c.3-.2.5-.6.5-.9l-.2-9.1c0-1-.6-1.6-1.7-1.6h-20.8c-2.3,0-4.9,0-7.7-.2-.4,0-.7.1-.9.4-.2.3-.3.6-.3,1,0,.6.2,1,.3,1.2.2.1.5.2.9.2h.4c1.3,0,2.2.2,2.8.7.6.4,1,1,1.1,1.7.2.7.3,1.5.3,2.6v25.7c0,1.1-.1,2-.3,2.6-.1.7-.5,1.3-1.1,1.7-.6.5-1.5.7-2.8.7s-1,0-1.2.2c-.2.1-.4.5-.4,1.2,0,.4,0,.7.3,1,.2.3.5.4.9.4,2.8-.1,5.4-.2,7.7-.2h8c2.9,0,5.8-.3,8.5-1.1,2.7-.8,5-2.1,6.8-4,1.8-1.9,2.7-4.3,2.7-7.4s-.6-4.3-1.8-6.2ZM557.7,523.5c-1.9,0-3.1-.4-3.8-1.1-.7-.7-1-2.2-1-4.3v-13.2c1-.3,2.4-.4,4.1-.4,3.2,0,5.8.8,8,2.2,2.2,1.5,3.3,3.8,3.3,7,0,6.4-3.6,9.7-10.6,9.8Z"/>
        <path class="cls-8" d="M621.2,494.6c-1.7-3.2-4.1-5.8-7.3-7.8-3.2-2-6.8-3-11-3s-6.5.9-9.7,2.7c-3.2,1.8-5.8,4.4-7.9,7.7-2.1,3.4-3.1,7.3-3.1,11.9s.9,7.2,2.6,10.4c1.7,3.3,4.1,5.9,7.3,7.8,3.1,2,6.7,3,10.9,3s6.5-.9,9.8-2.7c3.2-1.8,5.9-4.4,8-7.8,2.1-3.4,3.1-7.4,3.1-11.9s-.9-7.2-2.6-10.4ZM614.6,514.8c-1,3-2.4,5.3-4.4,7.1-2,1.7-4.4,2.6-7.4,2.6s-5.3-.9-7.2-2.5c-1.9-1.7-3.4-3.9-4.4-6.7-1-2.8-1.5-5.9-1.5-9.3,0-5.6,1.1-10.2,3.3-13.8,2.2-3.7,5.4-5.5,9.8-5.5s5.3.8,7.3,2.5c2,1.7,3.5,3.9,4.5,6.7,1,2.8,1.5,5.9,1.5,9.2s-.5,6.9-1.5,9.8Z"/>
        <path class="cls-4" d="M661.7,509.2c-1-1.5-2.4-2.7-4.3-3.6-1.8-.9-3.9-1.3-6.1-1.3v-.2c2.3-.6,4.4-1.6,6.1-3.2,1.7-1.6,2.6-3.7,2.6-6.4s-.3-2.9-1-4.2c-.6-1.3-1.5-2.3-2.7-3-1.2-.7-2.5-1.3-3.9-1.6-1.5-.4-3.4-.5-5.8-.5h-9.1c-2.3,0-4.8,0-7.6-.2-.4,0-.7.1-.9.4-.2.3-.3.6-.3,1,0,.6.2,1,.3,1.2.2.1.5.2.9.2h.4c1.3,0,2.2.2,2.8.7.6.4,1,1,1.1,1.7.2.7.3,1.5.3,2.6v25.7c0,1.1-.1,2-.3,2.6-.1.7-.5,1.3-1.1,1.7-.6.5-1.5.7-2.8.7s-1,0-1.2.2c-.2.1-.4.5-.4,1.2,0,.4,0,.7.3,1,.2.3.5.4.9.4,2.8-.1,5.4-.2,7.7-.2h7.8c2.9,0,5.7-.3,8.4-1.1,2.7-.8,4.9-2,6.7-3.9,1.8-1.8,2.7-4.2,2.7-7.1s-.5-3.4-1.5-4.8ZM641,487.6h4.5c5.1,0,7.6,2.6,7.6,7.7s-.5,4.1-1.5,5.3c-1,1.1-2.1,1.8-3.4,2.1-1.3.3-2.8.4-4.5.4h-2.7v-15.4ZM653.4,521.2c-1.9,1.5-4.5,2.3-7.7,2.4-1.3,0-2.3-.1-2.9-.4-.6-.2-1.1-.7-1.4-1.4-.3-.7-.4-1.8-.4-3.3v-12.9h2.7c4.2,0,7.3.8,9.3,2.3,2,1.5,3.1,3.4,3.3,5.8,0,3.5-1,6-2.9,7.6Z"/>
        <path class="cls-15" d="M685.2,523.5h-.4c-1.3,0-2.2-.2-2.8-.7-.6-.4-1-1-1.1-1.7-.2-.7-.3-1.5-.3-2.6v-25.7c0-1.1.1-2,.3-2.6.2-.7.5-1.2,1.1-1.7.6-.5,1.5-.7,2.8-.7s1,0,1.3-.2c.2-.1.4-.5.4-1.2,0-.4,0-.7-.3-1-.2-.3-.5-.4-.9-.4-2.8.1-5.5.2-8.1.2s-4.9,0-7.7-.2c-.4,0-.7.1-.9.4-.2.3-.3.6-.3,1,0,.6.2,1,.4,1.2.2.1.5.2.9.2h.4c1.3,0,2.2.2,2.8.7.6.4,1,1,1.2,1.6.2.6.3,1.5.3,2.7v25.7c0,1.1-.2,2-.3,2.7-.2.7-.6,1.2-1.2,1.6-.6.5-1.5.7-2.8.7s-1,0-1.2.2c-.2.1-.4.5-.4,1.2,0,.4,0,.7.3,1,.2.3.5.4.9.4,2.8-.1,5.4-.2,7.8-.2s5.3,0,8,.2c.4,0,.7-.1.9-.4.2-.3.3-.6.3-1,0-.6-.2-1-.4-1.1-.2-.1-.5-.2-1-.2Z"/>
      </g>
      <g>
        <path class="cls-2" d="M781.5,523.5h-.4c-1.3,0-2.2-.2-2.8-.7-.6-.4-1-1-1.1-1.7-.2-.7-.2-1.5-.3-2.6v-25.7c0-1.1.1-2,.3-2.6.2-.7.5-1.2,1.1-1.7.6-.5,1.5-.7,2.8-.7s1,0,1.3-.2c.2-.1.4-.5.4-1.2,0-.4,0-.7-.3-1-.2-.3-.5-.4-.9-.4-2.8.1-5.5.2-8.1.2s-4.9,0-7.7-.2c-.4,0-.7.1-.9.4-.2.3-.3.6-.3,1,0,.6.2,1,.4,1.2.2.1.5.2.9.2h.4c1.3,0,2.2.2,2.8.7.6.4,1,1,1.2,1.6.2.6.3,1.5.3,2.7v25.7c0,1.1-.2,2-.3,2.7-.2.7-.6,1.2-1.2,1.6-.6.5-1.5.7-2.8.7s-1,0-1.2.2c-.2.1-.4.5-.4,1.2,0,.4,0,.7.3,1,.2.3.5.4.9.4,2.8-.1,5.4-.2,7.8-.2s5.3,0,8,.2c.4,0,.7-.1.9-.4.2-.3.3-.6.3-1,0-.6-.2-1-.4-1.1-.2-.1-.5-.2-.9-.2Z"/>
        <path class="cls-13" d="M822.6,517.8c-.4-.3-.8-.4-1.2-.4s-.7.2-.9.6c-1.3,2.2-2.9,3.7-4.5,4.7-1.7,1-3.7,1.5-6,1.5s-5.5-.8-7.7-2.5c-2.3-1.7-4-3.9-5.2-6.7-1.2-2.8-1.8-6-1.8-9.4s.6-7.4,1.7-10.3c1.2-2.9,2.7-5.1,4.8-6.5,2-1.5,4.4-2.2,7-2.2s4.2.6,5.5,1.7c1.3,1.2,2,2.7,2,4.6s-.2,1.8-.7,2.5c-.5.7-1,1.3-1.6,1.6-.6.4-.9.6-.9.7,0,.2,0,.5.3.9.3.4.7.7,1.2,1,.5.3,1.2.4,2,.4,2,0,3.7-.7,4.9-2,1.2-1.4,1.8-3,1.8-5,0-3.1-1.5-5.4-4.3-6.9-2.9-1.5-6.2-2.2-9.9-2.2s-8,.9-11.2,2.8c-3.2,1.8-5.7,4.4-7.4,7.7-1.7,3.3-2.6,7.2-2.6,11.5s.9,8.1,2.7,11.3c1.8,3.2,4.2,5.7,7.3,7.5,3,1.8,6.4,2.6,10.1,2.6s4.7-.2,6.3-.6c1.7-.4,3.3-1.1,4.7-2.2,1.4-1.1,3-2.6,4.6-4.7.2-.2.3-.4.3-.7,0-.5-.4-1-1.1-1.4Z"/>
        <path class="cls-19" d="M862.9,486.7c0-1-.6-1.6-1.7-1.6h-31.7c-1.2,0-1.7.5-1.7,1.6l-.2,9.1c0,.4.2.7.5.9.3.2.7.4,1.1.4s1,0,1.5-.3.7-.5.8-.9c.3-2.1.7-3.8,1.1-4.9.4-1.1,1-2,1.8-2.6.8-.6,1.9-.9,3.4-1h4.5v30.9c0,1.1-.1,2-.3,2.6-.1.7-.5,1.3-1.1,1.7-.6.5-1.5.7-2.8.7s-1,0-1.2.2c-.2.1-.4.5-.4,1.2,0,.4,0,.7.3,1,.2.3.5.4.9.4,2.8-.1,5.5-.2,8.1-.2s4.9,0,7.7.2c.4,0,.7-.1.9-.4s.3-.6.3-1c0-.6-.2-1-.4-1.1-.2-.1-.5-.2-.9-.2h-.4c-1.3,0-2.2-.2-2.8-.7-.6-.4-1-1-1.2-1.7-.1-.7-.2-1.5-.3-2.6v-30.9h4.4c1.5,0,2.6.4,3.4,1,.8.6,1.4,1.4,1.8,2.6.4,1.1.8,2.8,1.1,4.9,0,.4.3.6.8.9.5.2.9.3,1.4.3s.8-.1,1.1-.4c.3-.2.5-.6.5-.9l-.3-9.1Z"/>
        <path class="cls-9" d="M910.3,523.5h-.4c-1.3,0-2.2-.2-2.8-.7-.6-.4-1-1-1.1-1.7-.1-.7-.2-1.5-.3-2.6v-25.7c0-1.1.1-2,.3-2.6.2-.7.5-1.2,1.1-1.7.6-.5,1.5-.7,2.8-.7s1,0,1.2-.2c.2-.1.4-.5.4-1.2,0-.9-.4-1.4-1.2-1.4-1.2,0-2.3,0-3.3.1-1,0-1.8.3-2.5.7-.7.3-1.6,1-2.5,1.9-1,1-2.3,2.5-3.9,4.5l-18.6,23.5v-23c0-1.1.1-2,.3-2.6.2-.7.5-1.2,1.2-1.7.6-.5,1.5-.7,2.8-.7s1,0,1.2-.2c.2-.1.4-.5.4-1.2,0-.4,0-.7-.3-1-.2-.3-.5-.4-.9-.4-2.8.1-5.5.2-8.1.2s-4.9,0-7.7-.2c-.4,0-.7.1-.9.4-.2.3-.3.6-.3,1,0,.6.2,1,.3,1.2.2.1.5.2.9.2h.4c1.3,0,2.2.2,2.8.7.6.4,1,1,1.1,1.7.2.7.3,1.5.3,2.6v25.7c0,1.1-.1,2-.3,2.6-.1.7-.5,1.3-1.1,1.7-.6.5-1.5.7-2.8.7s-1,0-1.2.2c-.2.1-.4.5-.4,1.2,0,.9.4,1.4,1.2,1.4,1.1,0,2.3,0,3.8-.1.9,0,1.6-.3,2.3-.8.7-.4,1.4-1.1,2.3-2,.9-.9,2.1-2.4,3.8-4.4l18.7-23.3v22.9c0,1.1-.1,2-.3,2.6-.2.7-.5,1.3-1.1,1.7-.6.5-1.5.7-2.8.7s-1,0-1.2.2c-.2.1-.4.5-.4,1.2,0,.4,0,.7.3,1s.5.4.9.4c2.8-.1,5.5-.2,8-.2s4.9,0,7.7.2c.4,0,.7-.1.9-.4.2-.3.3-.6.3-1,0-.6-.2-1-.3-1.1-.2-.1-.5-.2-.9-.2Z"/>
        <path class="cls-21" d="M961.2,523.5h-.4c-1.3,0-2.2-.2-2.8-.7-.6-.4-1-1-1.2-1.7-.2-.7-.3-1.5-.3-2.6v-25.7c0-1.1.1-2,.3-2.6.1-.7.5-1.2,1.2-1.7.6-.5,1.6-.7,2.8-.7s1,0,1.2-.2c.2-.1.4-.5.4-1.2,0-.4,0-.7-.3-1-.2-.3-.5-.4-.9-.4-2.8.1-5.3.2-7.7.2s-5.3,0-8.1-.2c-.3,0-.6.1-.8.4-.2.3-.3.6-.3,1,0,.6.2,1,.4,1.2.2.1.5.2,1,.2h.4c1.2,0,2.2.2,2.8.7.6.4,1,1,1.1,1.7.1.7.2,1.5.3,2.6v11.5h-20.4v-11.5c0-1.1.1-2,.3-2.6.2-.7.5-1.2,1.1-1.7.6-.5,1.5-.7,2.8-.7s1,0,1.2-.2c.2-.1.3-.5.4-1.2,0-.4,0-.7-.3-1s-.5-.4-.9-.4c-2.8.1-5.5.2-8.1.2s-4.8,0-7.6-.2c-.4,0-.7.1-.9.4-.2.3-.3.6-.3,1,0,.6.1,1,.3,1.2.2.1.5.2.9.2h.4c1.3,0,2.2.2,2.8.7.6.4,1,1,1.1,1.7.2.7.3,1.5.3,2.6v25.7c0,1.1-.1,2-.3,2.6-.1.7-.5,1.3-1.1,1.7-.6.5-1.5.7-2.8.7s-1,0-1.3.2c-.2.1-.3.5-.4,1.2,0,.4,0,.7.3,1,.2.3.5.4.9.4,2.8-.1,5.4-.2,7.7-.2s5.3,0,8,.2c.4,0,.7-.1.9-.4s.3-.6.3-1c0-.6-.2-1-.3-1.1-.2-.1-.5-.2-.9-.2h-.4c-1.3,0-2.2-.2-2.8-.7-.6-.4-1-1-1.1-1.7-.2-.7-.2-1.5-.3-2.6v-11.5h20.4v11.5c0,1.1-.2,2-.3,2.6-.2.7-.5,1.3-1.1,1.7-.6.5-1.5.7-2.8.7s-1,0-1.3.2c-.2.1-.4.5-.4,1.2,0,.4.1.7.3,1,.2.3.5.4.8.4,2.8-.1,5.5-.2,8-.2s5,0,7.8.2c.4,0,.7-.1.9-.4.2-.3.3-.6.3-1,0-.6-.2-1-.4-1.1-.2-.1-.5-.2-.9-.2Z"/>
        <path class="cls-3" d="M1011.5,523.5h-.4c-1.3,0-2.2-.2-2.8-.7-.6-.4-1-1-1.2-1.7-.1-.7-.2-1.5-.3-2.6v-25.7c0-1.1.1-2,.3-2.6.2-.7.5-1.2,1.2-1.7.6-.5,1.5-.7,2.8-.7s1,0,1.2-.2c.2-.1.4-.5.4-1.2,0-.9-.4-1.4-1.2-1.4-1.2,0-2.3,0-3.3.1-1,0-1.8.3-2.5.7-.7.3-1.5,1-2.5,1.9-1,1-2.3,2.5-3.9,4.5l-18.6,23.5v-23c0-1.1.1-2,.3-2.6.1-.7.5-1.2,1.1-1.7.6-.5,1.5-.7,2.8-.7s1,0,1.2-.2c.2-.1.4-.5.4-1.2,0-.4,0-.7-.3-1-.2-.3-.5-.4-.9-.4-2.8.1-5.5.2-8.1.2s-4.9,0-7.7-.2c-.4,0-.7.1-.9.4-.2.3-.3.6-.3,1,0,.6.2,1,.3,1.2.2.1.5.2.9.2h.4c1.3,0,2.2.2,2.8.7.6.4,1,1,1.2,1.7.1.7.2,1.5.3,2.6v25.7c0,1.1-.1,2-.3,2.6-.2.7-.5,1.3-1.2,1.7-.6.5-1.5.7-2.8.7s-1,0-1.2.2c-.2.1-.4.5-.4,1.2,0,.9.4,1.4,1.2,1.4,1.1,0,2.3,0,3.8-.1.9,0,1.6-.3,2.3-.8.7-.4,1.4-1.1,2.3-2,.9-.9,2.1-2.4,3.8-4.4l18.7-23.3v22.9c0,1.1-.1,2-.3,2.6-.2.7-.5,1.3-1.1,1.7-.6.5-1.5.7-2.8.7s-1,0-1.2.2c-.2.1-.4.5-.4,1.2,0,.4,0,.7.3,1,.2.3.5.4.9.4,2.8-.1,5.5-.2,8-.2s4.9,0,7.7.2c.4,0,.7-.1.9-.4.2-.3.3-.6.3-1,0-.6-.2-1-.3-1.1-.2-.1-.5-.2-.9-.2Z"/>
      </g>
      <g>
        <path class="cls-1" d="M725.4,488.8c0-.6-.3-.9-1-.9h-18.9c-.7,0-1,.3-1,.9v5.4c-.1.2,0,.4.2.6.2.1.4.2.6.2s.6,0,.9-.2c.3-.1.5-.3.5-.5.2-1.3.4-2.2.6-2.9.2-.7.6-1.2,1.1-1.5.5-.3,1.2-.5,2-.6h2.7v18.4c0,.6,0,1.2-.2,1.5,0,.4-.3.8-.7,1-.4.3-.9.4-1.7.4s-.6,0-.7,0c-.1,0-.2.3-.2.7,0,.2,0,.4.2.6.1.2.3.3.5.3,1.7,0,3.3-.1,4.8-.1s2.9,0,4.5.1c.2,0,.4,0,.5-.3,0-.2.2-.4.2-.6,0-.4,0-.6-.2-.7-.1,0-.3-.1-.5-.1h-.2c-.8,0-1.3-.1-1.7-.4-.4-.3-.6-.6-.7-1,0-.4-.1-.9-.2-1.5v-18.4h2.6c.9,0,1.5.2,2,.6.5.4.8.9,1.1,1.5.2.7.5,1.6.7,2.9,0,.2.2.4.5.5.3.1.6.2.9.2s.5,0,.7-.2c.2-.1.3-.3.3-.6l-.2-5.4Z"/>
        <path class="cls-6" d="M750,510.8c0,0-.3-.1-.5-.1h-.2c-.7,0-1.3-.3-1.6-.8-.4-.5-.7-1.2-1.1-2.2l-6.5-16c-.5-1.2-1-2.1-1.6-2.6-.6-.6-1.2-1-2-1.2-.8-.2-1.8-.3-3.1-.3s-.6,0-.8.2c-.2,0-.2.3-.2.6s0,.6.1.7c0,0,.4.2.8.2.7.1,1.2.3,1.5.5.4.2.5.5.5,1s0,.5-.2.9l-6.8,16c0,.2-.2.5-.4,1-.2.5-.5,1-.9,1.3-.4.4-.9.6-1.7.6h-.3c-.2,0-.3,0-.5,0-.1,0-.2.3-.2.7,0,.2,0,.4.2.6.1.2.3.3.5.3,1.7,0,2.9-.1,3.7-.1s2.6,0,4.2.1c.2,0,.4,0,.5-.3.1-.2.2-.4.2-.6,0-.4,0-.6-.2-.7,0,0-.3-.1-.5-.1h-.2c-1.1,0-1.8,0-2.2-.2-.4-.1-.6-.4-.6-.9s.2-.9.5-1.9c0,0,0-.2.1-.4,0-.3.5-1.2,1.1-2.8h9.5l1.3,3.2c.3.9.5,1.5.5,1.8s-.2.7-.6.9c-.4.2-1,.3-1.8.3s-.4,0-.5.1c-.1,0-.2.3-.2.7,0,.2,0,.4.2.6,0,.2.3.3.5.3,1.6,0,3.2-.1,4.8-.1s2.6,0,4.2.1c.2,0,.4,0,.5-.3.1-.2.2-.4.2-.6,0-.4,0-.6-.2-.7ZM732.3,502.8l4.1-9.9h0l3.9,9.9h-8.1Z"/>
      </g>
      <rect class="cls-10" x="705.2" y="521.8" width="44.2" height="3.5" rx="1" ry="1"/>
    </g>
    <path class="cls-22" d="M542.5,442.7c-.5-.8-1.3-1.3-2.4-1.3h-.2c-.8,0-1.8.9-2.9,2.7-1,1.4-1.9,2.6-3,3.4-1,.9-2.3,1.3-3.9,1.3-3.5,0-6.4-1.7-8.8-5-2.3-3.3-5.1-8.6-8.4-15.8-3.1-7-6.1-12.8-8.8-17.4-2.8-4.6-6.4-8.6-10.9-11.9-4.4-3.3-9.9-5-16.3-5v-.5c3.1-.6,6.2-2.3,9-5.1,2.9-2.8,5.4-6.3,7.4-10.7.5-1,1.2-2.6,2.2-5.1,2.3-5.8,4.6-10.3,6.9-13.6,2.4-3.2,5.6-4.9,9.7-4.9s4.2,1.2,5.8,3.7c1.5,2.5,2.3,5.3,2.3,8.4s.5.9,1.4.9,2.7-.5,4.5-1.6c1.8-1.1,3.4-2.6,4.8-4.7,1.4-2,2.1-4.4,2.1-7,0-4.1-1.6-7.8-4.9-11.2-3.2-3.4-7.6-5.1-13-5.1-4.5.2-8.3,1.8-11.5,4.7-3.2,2.9-5.8,6.2-7.8,10-2,3.8-4.2,8.6-6.6,14.4-1.9,4.7-3.3,7.9-4.1,9.6-2.7,5.1-5.8,8.8-9.5,11.2-3.7,2.4-7.4,3.6-11.3,3.6h-8.5v-28.6c.1-3,.4-5.4.8-7.3.4-1.9,1.5-3.4,3.2-4.7,1.7-1.3,4.3-1.9,7.8-1.9s2.9-.2,3.5-.5c.7-.4,1.1-1.4,1.2-3.3,0-1.1-.3-2-.8-2.8-.6-.8-1.4-1.2-2.4-1.2-7.8.4-15.4.5-22.6.5s-13.8-.2-21.5-.5c-1.1,0-1.9.4-2.4,1.2-.6.8-.8,1.7-.8,2.8.1,1.7.4,2.7,1,3.2.5.4,1.3.6,2.4.6h1.1c3.5,0,6.1.6,7.8,1.9,1.7,1.3,2.8,2.8,3.3,4.6.5,1.8.8,4.3.9,7.4v71.7c-.1,3.1-.4,5.6-.9,7.4-.5,1.8-1.6,3.3-3.3,4.6-1.7,1.2-4.3,1.9-7.8,1.9s-2.7.2-3.3.6c-.7.4-1.1,1.4-1.2,3.2,0,1.1.3,2,.8,2.8.5.8,1.3,1.2,2.4,1.2,7.8-.4,15-.6,21.7-.6s14.7.2,22.4.6c1.1,0,1.9-.4,2.4-1.2.5-.8.8-1.7.8-2.8-.1-1.7-.5-2.7-1-3.2-.5-.4-1.4-.6-2.6-.6h-1.1c-3.5,0-6.1-.6-7.8-1.9-1.7-1.3-2.7-2.8-3.2-4.7-.4-1.9-.7-4.3-.8-7.3v-35.9h4.7c5.2,0,9.6,1.2,13.2,3.7,3.6,2.5,6.5,5.6,8.8,9.2,2.2,3.7,4.8,8.6,7.7,14.9,3,6.7,5.8,12.2,8.4,16.3,2.6,4.1,6.1,7.6,10.4,10.5,4.3,2.8,9.7,4.2,16.1,4.2s7.7-.9,11.3-2.8c3.6-1.9,5.7-4.7,6.4-8.6.2-1.1,0-2-.5-2.9Z"/>
    <path class="cls-12" d="M674.6,447.9h-1.1c-3.5,0-6.1-.6-7.8-1.9-1.7-1.3-2.7-2.8-3.2-4.7-.4-1.9-.7-4.3-.8-7.3v-71.7c.1-3,.4-5.4.8-7.3.4-1.9,1.5-3.4,3.2-4.7,1.7-1.3,4.3-1.9,7.8-1.9s2.8-.2,3.4-.5c.6-.4,1-1.4,1.1-3.3,0-2.6-1.1-4-3.3-4-3.3,0-6.3.1-9.2.4-2.7.2-5,.9-7,1.8-2,1-4.3,2.8-6.9,5.4-2.7,2.7-6.3,6.9-10.8,12.7l-51.8,65.4v-64c.1-3,.4-5.4.8-7.3.4-1.9,1.5-3.4,3.2-4.7,1.7-1.3,4.3-1.9,7.8-1.9s2.8-.2,3.4-.5c.6-.4,1-1.4,1.1-3.3,0-1.1-.3-2-.8-2.8-.5-.8-1.3-1.2-2.4-1.2-7.8.4-15.3.5-22.6.5s-13.6-.2-21.3-.5c-1.1,0-1.9.4-2.4,1.2-.5.8-.8,1.7-.8,2.8.1,1.7.4,2.7.9,3.2.5.4,1.3.6,2.5.6h1.1c3.5,0,6.1.6,7.8,1.9,1.7,1.3,2.7,2.8,3.2,4.7.4,1.9.7,4.3.8,7.3v71.7c-.1,3-.4,5.5-.8,7.3-.4,1.9-1.5,3.4-3.2,4.7-1.7,1.2-4.3,1.9-7.8,1.9s-2.8.2-3.4.6c-.6.4-1,1.4-1.1,3.2,0,2.5,1.1,3.9,3.3,4,3,.1,6.5,0,10.5-.4,2.4-.3,4.5-.9,6.4-2.1,1.9-1.2,4-3,6.5-5.6,2.5-2.6,6-6.7,10.6-12.4l52-65v63.8c-.1,3-.4,5.5-.8,7.3-.4,1.9-1.5,3.4-3.2,4.7-1.7,1.2-4.3,1.9-7.8,1.9s-2.7.2-3.4.6c-.7.4-1.1,1.4-1.2,3.2,0,1.1.3,2,.8,2.8.5.8,1.3,1.2,2.4,1.2,7.8-.4,15.3-.6,22.4-.6s13.6.2,21.3.6c1.1,0,1.9-.4,2.4-1.2.5-.8.8-1.7.8-2.8-.1-1.7-.4-2.7-.9-3.2-.5-.4-1.3-.6-2.5-.6Z"/>
    <path class="cls-17" d="M816.6,447.9h-1.1c-3.5,0-6.1-.6-7.9-1.9-1.7-1.3-2.8-2.8-3.3-4.7-.4-1.9-.7-4.3-.8-7.3v-71.7c.1-3,.4-5.4.8-7.3.4-1.9,1.5-3.4,3.3-4.7,1.7-1.3,4.4-1.9,7.9-1.9s2.7-.2,3.4-.5c.7-.4,1.1-1.4,1.2-3.3,0-1.1-.3-2-.8-2.8-.5-.8-1.3-1.2-2.4-1.2-7.7.4-14.9.5-21.5.5s-14.8-.2-22.6-.5c-1,0-1.7.4-2.4,1.2-.6.8-.9,1.7-.9,2.8.1,1.7.5,2.7,1,3.2.5.4,1.4.6,2.6.6h1.1c3.5,0,6.1.6,7.8,1.9,1.7,1.3,2.7,2.8,3.2,4.7.4,1.9.7,4.3.8,7.3v32h-56.7v-32c.1-3,.4-5.4.8-7.3.4-1.9,1.5-3.4,3.2-4.7,1.7-1.3,4.3-1.9,7.8-1.9s2.8-.2,3.4-.5c.6-.4,1-1.4,1.1-3.3,0-1.1-.3-2-.8-2.8-.5-.8-1.3-1.2-2.4-1.2-7.8.4-15.3.5-22.6.5s-13.5-.2-21.3-.5c-1.1,0-1.9.4-2.4,1.2-.5.8-.8,1.7-.8,2.8.1,1.7.4,2.7.9,3.2.5.4,1.3.6,2.5.6h1.1c3.5,0,6.1.6,7.8,1.9,1.7,1.3,2.7,2.8,3.2,4.7.4,1.9.7,4.3.8,7.3v71.7c-.1,3-.4,5.5-.8,7.3-.4,1.9-1.5,3.4-3.2,4.7-1.7,1.2-4.3,1.9-7.8,1.9s-2.8.2-3.4.6c-.6.4-1,1.4-1.1,3.2,0,1.1.3,2,.8,2.8.6.8,1.4,1.2,2.4,1.2,7.8-.4,15-.6,21.5-.6s14.7.2,22.4.6c1.1,0,1.9-.4,2.4-1.2.6-.8.8-1.7.8-2.8-.1-1.7-.4-2.7-.9-3.2-.5-.4-1.3-.6-2.5-.6h-1.1c-3.5,0-6.1-.6-7.8-1.9-1.7-1.3-2.7-2.8-3.2-4.7-.4-1.9-.7-4.3-.8-7.3v-32h56.7v32c-.1,3-.4,5.5-.8,7.3-.4,1.9-1.5,3.4-3.2,4.7-1.7,1.2-4.3,1.9-7.8,1.9s-2.9.2-3.5.6c-.7.4-1.1,1.4-1.2,3.2,0,1.1.3,2,.9,2.8.6.8,1.4,1.2,2.4,1.2,7.8-.4,15.3-.6,22.4-.6s14,.2,21.7.6c1.1,0,1.9-.4,2.4-1.2.5-.8.8-1.7.8-2.8-.1-1.7-.5-2.7-1-3.2-.6-.4-1.4-.6-2.4-.6Z"/>
    <path class="cls-5" d="M882.1,447.9h-1.1c-3.5,0-6.1-.6-7.8-1.9-1.7-1.3-2.7-2.8-3.2-4.7-.4-1.9-.7-4.3-.8-7.3v-71.7c.1-3,.4-5.4.8-7.3s1.5-3.4,3.2-4.7c1.7-1.3,4.3-1.9,7.8-1.9s2.9-.2,3.5-.5,1.1-1.4,1.2-3.3c0-1.1-.3-2-.8-2.8-.5-.8-1.3-1.2-2.4-1.2-7.8.4-15.3.5-22.6.5s-13.7-.2-21.5-.5c-1.1,0-1.9.4-2.4,1.2-.5.8-.8,1.7-.8,2.8.1,1.7.5,2.7,1,3.2.5.4,1.3.6,2.4.6h1.1c3.5,0,6.1.6,7.8,1.9,1.7,1.3,2.8,2.8,3.3,4.6.5,1.8.8,4.3.9,7.4v71.7c-.1,3.1-.4,5.6-.9,7.4-.5,1.8-1.6,3.3-3.3,4.6-1.7,1.2-4.3,1.9-7.8,1.9s-2.7.2-3.3.6c-.7.4-1.1,1.4-1.2,3.2,0,1.1.3,2,.8,2.8.6.8,1.4,1.2,2.4,1.2,7.8-.4,15.1-.6,21.7-.6s14.7.2,22.4.6c1.1,0,1.9-.4,2.4-1.2.6-.8.8-1.7.8-2.8-.1-1.7-.4-2.7-1-3.2-.5-.4-1.4-.6-2.6-.6Z"/>
    <path class="cls-20" d="M1009.1,447.9h-1.1c-3.5,0-6.1-.6-7.8-1.9-1.7-1.3-2.7-2.8-3.2-4.7-.4-1.9-.7-4.3-.8-7.3v-71.7c.1-3,.4-5.4.8-7.3.4-1.9,1.5-3.4,3.2-4.7,1.7-1.3,4.3-1.9,7.8-1.9s2.9-.2,3.5-.5c.7-.4,1.1-1.4,1.2-3.3,0-1.1-.3-2-.8-2.8-.5-.8-1.3-1.2-2.4-1.2-7.7.4-14.9.5-21.7.5h-28l-3.8-.2c-10.2,0-19.6,2.3-28.2,6.9-8.6,4.6-12.8,12.5-12.8,23.8s3,14.7,9,19.9c7.8,6,16.7,9.1,26.7,9.4v.6c-4.4,1.7-8.4,4.2-11.7,7.6-3.4,3.4-6.5,7.5-9.4,12.3l-4.9,8.5c-3.5,6.5-6.5,11.3-9,14.4-2.5,3.1-5.5,4.6-9,4.6s-3-.4-3.9-1.2c-.9-.8-1.9-1.9-3-3.4-.7-1-1.3-1.7-1.8-2.2-.5-.5-1-.7-1.6-.7s-1.5.3-2,1c-.5.7-.7,1.5-.7,2.4v.7c.8,3.8,3,6.7,6.5,8.6,3.5,1.9,7.2,2.8,11.2,2.8,6.9,0,12.6-1.4,17.1-4.1,4.5-2.8,8-6.1,10.5-10,2.5-3.9,5.4-9.2,8.8-16,2.5-5.1,4.8-9.1,6.9-12.3s4.8-5.7,8-7.8c3.2-2,7.1-3.1,11.6-3.1h4.3v30.3c-.1,3.1-.4,5.6-.9,7.4-.5,1.8-1.6,3.3-3.3,4.6-1.7,1.2-4.3,1.9-7.8,1.9s-2.7.2-3.4.6c-.7.4-1.1,1.4-1.2,3.2,0,1.1.3,2,.8,2.8.5.8,1.3,1.2,2.4,1.2,7.8-.4,15.4-.6,22.6-.6s13.8.2,21.5.6c1.1,0,1.9-.4,2.4-1.2.5-.8.8-1.7.8-2.8-.1-1.7-.5-2.7-1-3.2-.6-.4-1.4-.6-2.6-.6ZM978.6,397h-9.2c-8.9,0-16.8-1.4-23.8-4.3-6.9-2.9-10.4-9.5-10.4-19.7s2.6-13.9,7.9-18.1c5.2-4.3,12.7-6.4,22.3-6.4s6.5.3,8.3.8c1.8.6,3.1,1.8,3.8,3.7.7,1.9,1.1,5.1,1.1,9.4v34.7Z"/>
  </g>
</svg>