<svg width="166" height="68" viewBox="0 0 166 68" fill="none" xmlns="http://www.w3.org/2000/svg">
<path d="M35.1639 33.7217C34.9657 34.6341 34.7476 35.5268 34.4701 36.3996C32.706 41.9338 29.2371 46.0796 25.0547 47.3292V50.2451C33.261 49.2533 40.1194 43.8182 43.1125 36.3996C43.4693 35.5268 43.7666 34.6341 44.0045 33.7217H35.1639ZM33.261 44.4332C34.9855 42.2115 36.3532 39.4741 37.2452 36.3996H40.1986C38.6525 39.6725 36.2541 42.4496 33.261 44.4332Z" fill="url(#paint0_linear_706_656)"/>
<path d="M44.7183 27.1754C44.7183 26.8977 44.4804 26.6795 44.2029 26.6795H32.4089C27.4137 26.6795 23.3304 22.5933 23.3304 17.5748V10.0767C23.0926 10.0569 22.8349 10.0371 22.597 10.0172C22.5177 10.0172 22.4384 10.0172 22.3591 10.0172C21.7843 10.0172 21.2095 10.0767 20.6545 10.1957V17.5748C20.6545 22.5933 16.591 26.6597 11.5958 26.6795H11.1598C11.1399 27.1159 11.1201 27.5722 11.1201 28.0284C11.1201 28.4846 11.1201 28.921 11.1598 29.3574H11.5562C14.0736 29.3574 16.3333 30.369 17.9785 32.0353C19.6237 33.6817 20.6545 35.9628 20.6545 38.4622V47.5669C14.0736 46.3173 8.97934 38.0456 8.97934 28.0086C8.97934 17.9715 14.9854 8.29148 22.3591 8.29148C29.7329 8.29148 22.5177 8.29148 22.6168 8.29148C27.8498 8.43033 32.3692 13.0323 34.4704 19.6179C34.7479 20.4708 34.9857 21.3635 35.1641 22.2958H44.0047C43.7668 21.3833 43.4695 20.4907 43.1127 19.6179C39.9016 11.7033 32.2899 6.01033 23.3304 5.63345V0.337216C23.3304 0.138855 23.1718 0 22.9934 0H21.0113C20.813 0 20.6545 0.158691 20.6545 0.337216V5.67312C9.11809 6.54591 0 16.2259 0 27.9887C0 39.7515 9.11809 49.4315 20.6545 50.3043V67.3237C20.6545 67.6212 20.8923 67.8592 21.1897 67.8592H22.7952C23.0926 67.8592 23.3304 67.6212 23.3304 67.3237V50.3638V47.6661V38.4423C23.3304 33.4238 27.4137 29.3376 32.4287 29.3376H44.1831C44.4606 29.3376 44.6985 29.1194 44.6985 28.8417C44.6985 28.564 44.6985 28.2863 44.6985 28.0086C44.6985 27.7308 44.6985 27.4531 44.6985 27.1754H44.7183ZM40.1989 19.6377H37.2454C36.3534 16.5631 34.9857 13.8257 33.2612 11.6041C36.2543 13.5877 38.6528 16.3648 40.1989 19.6377ZM2.67596 28.0086C2.67596 21.1651 6.18444 15.1349 11.4769 11.6041C8.30539 15.6903 6.3232 21.542 6.3232 28.0086C6.3232 34.4751 8.30539 40.3268 11.4769 44.4328C6.18444 40.902 2.67596 34.852 2.67596 28.0086ZM22.0023 33.0072C20.8923 30.8848 19.148 29.1392 17.0072 28.0086C19.1282 26.8977 20.8725 25.1522 22.0023 23.0099C23.1124 25.1323 24.8567 26.8779 26.9975 28.0086C24.8567 29.1194 23.1124 30.8649 22.0023 33.0072Z" fill="url(#paint1_linear_706_656)"/>
<path d="M57.461 52.0304H57.3817C57.124 52.0304 56.9456 51.9908 56.8267 51.8916C56.7078 51.8122 56.6285 51.6932 56.6087 51.5544C56.569 51.4155 56.5492 51.2568 56.5492 51.0386V45.9408C56.5492 45.6036 56.6285 45.3457 56.7474 45.187C56.8664 45.0283 57.0844 44.949 57.4015 44.949C57.7187 44.949 57.5998 44.949 57.6394 44.9093C57.6791 44.8895 57.6989 44.8101 57.7187 44.6713C57.7187 44.5919 57.7187 44.5324 57.6592 44.4729C57.6196 44.4134 57.5601 44.3936 57.4808 44.3936C56.9258 44.4134 56.4303 44.4332 55.9545 44.4332H52.7236C52.2677 44.4332 51.7523 44.4332 51.2171 44.3936C51.1378 44.3936 51.0783 44.4134 51.0387 44.4729C50.9991 44.5324 50.9792 44.5919 50.9792 44.6713C50.9792 44.7903 51.0189 44.8696 51.0387 44.9093C51.0783 44.9291 51.1378 44.949 51.2171 44.949H51.2964C51.5937 44.949 51.8118 45.0085 51.9109 45.1077C52.0298 45.2068 52.0893 45.3854 52.0893 45.6631C52.0893 45.9408 52.0893 45.8813 52.0893 45.9408C51.9307 47.369 51.7919 48.46 51.673 49.1741C51.5541 49.908 51.3955 50.4832 51.2171 50.9395C51.0387 51.3957 50.7612 51.6139 50.4639 51.6139C50.1665 51.6139 49.9287 51.4354 49.9287 51.118C49.9287 50.8006 49.9287 50.8998 49.9881 50.8205C50.0278 50.7411 50.0674 50.6816 50.0674 50.6618C50.0674 50.6419 50.008 50.6023 49.9485 50.5824C49.889 50.5626 49.8097 50.5427 49.7106 50.5427C49.4529 50.5427 49.2151 50.6419 49.0565 50.8205C48.8781 50.999 48.7988 51.237 48.7988 51.5147C48.7988 51.7924 48.9376 52.1495 49.1953 52.3677C49.453 52.5859 49.8296 52.7049 50.3053 52.7049C50.781 52.7049 51.2964 52.4272 51.6135 51.8519C51.9307 51.2767 52.1686 50.5427 52.3271 49.6303C52.4857 48.7178 52.6443 47.4681 52.8029 45.8813C52.8227 45.6234 52.8623 45.425 52.9218 45.306C52.9813 45.187 53.0407 45.1077 53.1398 45.068C53.2191 45.0283 53.3579 45.0085 53.5164 45.0085H55.3202V51.0585C55.3202 51.2767 55.3004 51.4552 55.2608 51.5742C55.2211 51.7131 55.1617 51.8321 55.0427 51.9114C54.9238 52.0106 54.7454 52.0503 54.4877 52.0503C54.23 52.0503 54.2895 52.0503 54.2499 52.09C54.2102 52.1098 54.1904 52.1891 54.1706 52.328C54.1706 52.4073 54.1706 52.4668 54.23 52.5263C54.2895 52.5859 54.3291 52.6057 54.4084 52.6057C54.9634 52.5859 55.4986 52.566 56.014 52.566C56.5294 52.566 56.9853 52.566 57.5403 52.6057C57.6196 52.6057 57.6791 52.5859 57.7187 52.5263C57.7583 52.4668 57.7782 52.4073 57.7782 52.328C57.7782 52.209 57.7583 52.1296 57.7187 52.1098C57.6791 52.09 57.6196 52.0701 57.5403 52.0701L57.461 52.0304Z" fill="url(#paint2_linear_706_656)"/>
<path d="M70.5045 46.2777C70.2072 45.643 69.7711 45.1272 69.1765 44.7305C68.5818 44.3536 67.888 44.1553 67.0555 44.1553C66.223 44.1553 65.8464 44.314 65.2914 44.6313C64.7165 44.9487 64.2606 45.405 63.884 46.0199C63.5074 46.6348 63.2893 47.3489 63.2497 48.182H61.4459V45.9009C61.4459 45.6827 61.4657 45.5041 61.5054 45.3851C61.545 45.2463 61.6045 45.1471 61.7234 45.0479C61.8423 44.9487 62.0207 44.909 62.2784 44.909C62.5361 44.909 62.4766 44.909 62.5163 44.8694C62.5559 44.8495 62.5956 44.7702 62.5956 44.6313C62.5956 44.552 62.5956 44.4925 62.5361 44.433C62.4965 44.3735 62.437 44.3536 62.3577 44.3536C61.8027 44.3735 61.2675 44.3933 60.7521 44.3933C60.2368 44.3933 59.7809 44.3933 59.2258 44.3536C59.1664 44.3536 59.1069 44.3735 59.0673 44.433C59.0276 44.4925 59.0078 44.552 59.0078 44.6313C59.0078 44.7504 59.0276 44.8297 59.0673 44.8694C59.1069 44.8892 59.1664 44.909 59.2457 44.909H59.325C59.5826 44.909 59.761 44.9487 59.88 45.0479C59.9989 45.1272 60.0782 45.2463 60.098 45.3851C60.1377 45.524 60.1575 45.6827 60.1575 45.9009V50.9987C60.1575 51.2169 60.1377 51.3955 60.098 51.5145C60.0782 51.6533 59.9989 51.7723 59.88 51.8517C59.761 51.9509 59.5826 51.9905 59.325 51.9905C59.0673 51.9905 59.1267 51.9905 59.0871 52.0302C59.0475 52.05 59.0276 52.1294 59.0078 52.2682C59.0078 52.3476 59.0078 52.4071 59.0673 52.4666C59.1069 52.5261 59.1664 52.5459 59.2258 52.5459C59.7809 52.5261 60.2962 52.5063 60.772 52.5063C61.2477 52.5063 61.8027 52.5063 62.3775 52.5459C62.4568 52.5459 62.5163 52.5261 62.5559 52.4666C62.5956 52.4071 62.6154 52.3476 62.6154 52.2682C62.6154 52.1492 62.5758 52.0699 62.5361 52.05C62.4965 52.0302 62.437 52.0104 62.3577 52.0104H62.2784C62.0207 52.0104 61.8423 51.9707 61.7234 51.8715C61.6045 51.7922 61.5252 51.6732 61.5054 51.5343C61.4657 51.3954 61.4657 51.2368 61.4459 51.0186V48.7374H63.2497C63.2695 49.4713 63.4479 50.1259 63.7453 50.7409C64.0426 51.3558 64.4787 51.8517 65.0535 52.2087C65.6283 52.5856 66.3023 52.7641 67.0753 52.7641C67.8484 52.7641 68.3439 52.5856 68.9386 52.2286C69.5333 51.8715 70.0288 51.3558 70.3856 50.7012C70.7622 50.0268 70.9406 49.2333 70.9406 48.3407C70.9406 47.4481 70.782 46.9125 70.5045 46.2579V46.2777ZM68.8791 51.1574C68.5223 51.8715 67.9079 52.2286 67.0555 52.2286C66.2032 52.2286 65.6482 51.8913 65.2914 51.1971C64.9346 50.5227 64.7562 49.63 64.7562 48.539C64.7562 45.9802 65.5292 44.7107 67.0555 44.7107C68.5818 44.7107 68.4827 45.0479 68.8593 45.7223C69.2359 46.3968 69.4143 47.2695 69.4143 48.3407C69.4143 49.4118 69.2359 50.4433 68.8593 51.1376L68.8791 51.1574Z" fill="url(#paint3_linear_706_656)"/>
<path d="M78.8289 48.8567C78.5911 48.4996 78.2343 48.2219 77.7585 48.0037C77.2828 47.8054 76.708 47.6863 76.034 47.6863C75.3601 47.6863 75.1817 47.726 74.706 47.8054V44.9291H76.5098C76.8071 44.9291 77.0251 44.9886 77.1837 45.1077C77.3423 45.2267 77.4612 45.3854 77.5405 45.6036C77.6198 45.8218 77.6991 46.1391 77.7585 46.5755C77.7585 46.6549 77.818 46.6945 77.8973 46.754C77.9766 46.8136 78.0955 46.8136 78.1946 46.8136C78.2937 46.8136 78.3334 46.7937 78.4127 46.7342C78.4721 46.6945 78.5118 46.6152 78.5118 46.5557L78.4721 44.7506C78.4721 44.5522 78.3532 44.4332 78.1352 44.4332H74.0122C73.5563 44.4332 73.0409 44.4332 72.4859 44.3936C72.4066 44.3936 72.3472 44.4134 72.3075 44.4729C72.2679 44.5324 72.248 44.5919 72.248 44.6713C72.248 44.7903 72.2877 44.8696 72.3075 44.9093C72.3472 44.9291 72.4066 44.949 72.4859 44.949H72.5652C72.8229 44.949 73.0013 44.9886 73.1202 45.0878C73.2391 45.1672 73.3184 45.2862 73.3383 45.425C73.3779 45.5639 73.3977 45.7226 73.3977 45.9408V51.0386C73.3977 51.2568 73.3779 51.4354 73.3383 51.5544C73.3184 51.6932 73.2391 51.8122 73.1202 51.8916C73.0013 51.9908 72.8229 52.0304 72.5652 52.0304C72.3075 52.0304 72.367 52.0304 72.3273 52.0701C72.2877 52.09 72.248 52.1693 72.248 52.3082C72.248 52.3875 72.248 52.447 72.3075 52.5065C72.3472 52.566 72.4066 52.5859 72.4859 52.5859C73.0409 52.566 73.5563 52.5462 74.0122 52.5462H75.598C76.1728 52.5462 76.7476 52.4867 77.2828 52.328C77.818 52.1693 78.2739 51.9114 78.6307 51.5345C78.9875 51.1577 79.1659 50.6816 79.1659 50.0667C79.1659 49.4518 79.047 49.2137 78.8091 48.8368L78.8289 48.8567ZM75.6574 52.0304C75.2808 52.0304 75.0429 51.9511 74.9042 51.8123C74.7654 51.6734 74.706 51.3759 74.706 50.9593V48.3409C74.9042 48.2814 75.1817 48.2616 75.5187 48.2616C76.153 48.2616 76.6683 48.4203 77.1044 48.698C77.5405 48.9955 77.7585 49.4518 77.7585 50.0865C77.7585 51.356 77.045 52.0106 75.6574 52.0304Z" fill="url(#paint4_linear_706_656)"/>
<path d="M88.2442 46.2976C87.9073 45.6628 87.4315 45.1471 86.7972 44.7504C86.1629 44.3536 85.4493 44.1553 84.6168 44.1553C83.7843 44.1553 83.3284 44.3338 82.6941 44.6909C82.0598 45.0479 81.5444 45.5636 81.1281 46.2182C80.7119 46.8927 80.5137 47.6663 80.5137 48.5787C80.5137 49.4912 80.6921 50.0069 81.029 50.6417C81.366 51.2963 81.8417 51.812 82.476 52.1889C83.0905 52.5856 83.8041 52.784 84.6366 52.784C85.4692 52.784 85.9251 52.6054 86.5792 52.2484C87.2135 51.8913 87.7487 51.3756 88.1649 50.7012C88.5812 50.0268 88.7794 49.2333 88.7794 48.3407C88.7794 47.4481 88.601 46.9125 88.264 46.2777L88.2442 46.2976ZM86.936 50.3045C86.7378 50.8995 86.4603 51.3558 86.0638 51.7128C85.6674 52.05 85.1916 52.2286 84.597 52.2286C84.0023 52.2286 83.5464 52.05 83.1698 51.7327C82.7932 51.3954 82.4959 50.959 82.2976 50.4036C82.0994 49.8482 82.0003 49.2333 82.0003 48.5589C82.0003 47.4481 82.2184 46.5356 82.6544 45.8215C83.0905 45.0876 83.7248 44.7305 84.597 44.7305C85.4692 44.7305 85.6475 44.8892 86.044 45.2264C86.4404 45.5636 86.7378 46 86.936 46.5554C87.1342 47.1109 87.2333 47.7258 87.2333 48.3804C87.2333 49.035 87.1342 49.7491 86.936 50.3243V50.3045Z" fill="url(#paint5_linear_706_656)"/>
<path d="M96.2717 49.1939C96.0735 48.8963 95.796 48.6583 95.4194 48.4798C95.0626 48.3013 94.6463 48.2219 94.2102 48.2219V48.1822C94.6661 48.0632 95.0824 47.8649 95.4194 47.5475C95.7563 47.2301 95.9347 46.8136 95.9347 46.278C95.9347 45.7424 95.8753 45.7027 95.7365 45.4449C95.6176 45.187 95.4392 44.9886 95.2013 44.8498C94.9635 44.7109 94.7058 44.5919 94.4283 44.5324C94.1309 44.4531 93.7543 44.4332 93.2786 44.4332H91.4748C91.0189 44.4332 90.5233 44.4332 89.9683 44.3936C89.889 44.3936 89.8296 44.4134 89.7899 44.4729C89.7503 44.5324 89.7305 44.5919 89.7305 44.6713C89.7305 44.7903 89.7701 44.8696 89.7899 44.9093C89.8296 44.9291 89.889 44.949 89.9683 44.949H90.0476C90.3053 44.949 90.4837 44.9886 90.6026 45.0878C90.7216 45.1672 90.8009 45.2862 90.8207 45.425C90.8603 45.5639 90.8801 45.7226 90.8801 45.9408V51.0386C90.8801 51.2568 90.8603 51.4354 90.8207 51.5544C90.8009 51.6932 90.7216 51.8122 90.6026 51.8916C90.4837 51.9908 90.3053 52.0304 90.0476 52.0304C89.7899 52.0304 89.8494 52.0304 89.8097 52.0701C89.7701 52.09 89.7305 52.1693 89.7305 52.3082C89.7305 52.3875 89.7305 52.447 89.7899 52.5065C89.8296 52.566 89.889 52.5859 89.9683 52.5859C90.5233 52.566 91.0387 52.5462 91.4946 52.5462H93.0407C93.6156 52.5462 94.1706 52.4867 94.7058 52.328C95.241 52.1693 95.677 51.9313 96.0338 51.5544C96.3906 51.1973 96.569 50.7213 96.569 50.146C96.569 49.5708 96.4699 49.4716 96.2717 49.1939ZM92.1686 44.9093H93.0606C94.0715 44.9093 94.567 45.425 94.567 46.4367C94.567 47.4483 94.4679 47.25 94.2697 47.488C94.0715 47.7062 93.8534 47.845 93.5957 47.9045C93.3381 47.9641 93.0407 47.9839 92.7038 47.9839H92.1686V44.9291V44.9093ZM94.6265 51.5742C94.2499 51.8718 93.7345 52.0304 93.1002 52.0503C92.8425 52.0503 92.6443 52.0304 92.5254 51.9709C92.4064 51.9313 92.3073 51.8321 92.2479 51.6932C92.1884 51.5544 92.1686 51.3362 92.1686 51.0386V48.4798H92.7038C93.5363 48.4798 94.1508 48.6385 94.5472 48.936C94.9436 49.2336 95.1617 49.6104 95.2013 50.0865C95.2013 50.7808 95.0031 51.2767 94.6265 51.5941V51.5742Z" fill="url(#paint6_linear_706_656)"/>
<path d="M100.93 52.0304H100.851C100.593 52.0304 100.415 51.9908 100.296 51.8916C100.177 51.8122 100.097 51.6932 100.078 51.5544C100.038 51.4155 100.018 51.2568 100.018 51.0386V45.9408C100.018 45.7226 100.038 45.5441 100.078 45.425C100.117 45.2862 100.177 45.187 100.296 45.0878C100.415 44.9886 100.593 44.949 100.851 44.949C101.108 44.949 101.049 44.949 101.108 44.9093C101.148 44.8895 101.188 44.8101 101.188 44.6713C101.188 44.5919 101.188 44.5324 101.128 44.4729C101.089 44.4134 101.029 44.3936 100.95 44.3936C100.395 44.4134 99.8596 44.4332 99.3442 44.4332C98.8289 44.4332 98.373 44.4332 97.8179 44.3936C97.7387 44.3936 97.6792 44.4134 97.6395 44.4729C97.5999 44.5324 97.5801 44.5919 97.5801 44.6713C97.5801 44.7903 97.6197 44.8696 97.6594 44.9093C97.699 44.9291 97.7585 44.949 97.8378 44.949H97.9171C98.1747 44.949 98.3531 44.9886 98.4721 45.0878C98.591 45.1672 98.6703 45.2862 98.7099 45.4052C98.7496 45.5242 98.7694 45.7027 98.7694 45.9408V51.0386C98.7694 51.2568 98.7298 51.4354 98.7099 51.5742C98.6703 51.7131 98.591 51.8122 98.4721 51.8916C98.3531 51.9908 98.1747 52.0304 97.9171 52.0304C97.6594 52.0304 97.7188 52.0304 97.6792 52.0701C97.6395 52.09 97.5999 52.1693 97.5999 52.3082C97.5999 52.3875 97.5999 52.447 97.6594 52.5065C97.699 52.566 97.7585 52.5859 97.8378 52.5859C98.3928 52.566 98.9082 52.5462 99.3839 52.5462C99.8596 52.5462 100.434 52.5462 100.97 52.5859C101.049 52.5859 101.108 52.566 101.148 52.5065C101.188 52.447 101.207 52.3875 101.207 52.3082C101.207 52.1891 101.168 52.1098 101.128 52.09C101.089 52.0701 101.029 52.0503 100.93 52.0503V52.0304Z" fill="url(#paint7_linear_706_656)"/>
<path d="M120.02 52.0295H119.941C119.683 52.0295 119.504 51.9898 119.386 51.8906C119.267 51.8113 119.187 51.6923 119.167 51.5534C119.128 51.4145 119.128 51.2559 119.108 51.0377V45.9398C119.108 45.7216 119.128 45.5431 119.167 45.4241C119.207 45.2852 119.267 45.186 119.386 45.0868C119.504 44.9877 119.683 44.948 119.941 44.948C120.198 44.948 120.139 44.948 120.198 44.9083C120.238 44.8885 120.278 44.8091 120.278 44.6703C120.278 44.5909 120.278 44.5314 120.218 44.4719C120.178 44.4124 120.119 44.3926 120.04 44.3926C119.485 44.4124 118.949 44.4323 118.434 44.4323C117.919 44.4323 117.463 44.4323 116.908 44.3926C116.828 44.3926 116.769 44.4124 116.729 44.4719C116.69 44.5314 116.67 44.5909 116.67 44.6703C116.67 44.7893 116.71 44.8686 116.749 44.9083C116.789 44.9282 116.848 44.948 116.928 44.948H117.007C117.265 44.948 117.443 44.9877 117.562 45.0868C117.681 45.1662 117.76 45.2852 117.8 45.4042C117.839 45.5232 117.859 45.7018 117.859 45.9398V51.0377C117.859 51.2559 117.82 51.4344 117.8 51.5732C117.76 51.7121 117.681 51.8113 117.562 51.8906C117.443 51.9898 117.265 52.0295 117.007 52.0295C116.749 52.0295 116.809 52.0295 116.769 52.0691C116.729 52.089 116.69 52.1683 116.69 52.3072C116.69 52.3865 116.69 52.446 116.749 52.5055C116.789 52.565 116.848 52.5849 116.928 52.5849C117.483 52.565 117.998 52.5452 118.474 52.5452C118.949 52.5452 119.524 52.5452 120.059 52.5849C120.139 52.5849 120.198 52.565 120.238 52.5055C120.278 52.446 120.297 52.3865 120.297 52.3072C120.297 52.1882 120.258 52.1088 120.218 52.089C120.178 52.0691 120.119 52.0493 120.04 52.0493L120.02 52.0295Z" fill="url(#paint8_linear_706_656)"/>
<path d="M128.167 50.8992C128.088 50.8397 128.009 50.8199 127.929 50.8199C127.85 50.8199 127.791 50.8596 127.751 50.9389C127.493 51.3753 127.176 51.6728 126.859 51.8712C126.522 52.0696 126.126 52.1688 125.67 52.1688C125.214 52.1688 124.579 52.0101 124.143 51.6728C123.688 51.3356 123.351 50.8992 123.113 50.3438C122.875 49.7884 122.756 49.1537 122.756 48.4792C122.756 47.8048 122.875 47.0114 123.093 46.4361C123.331 45.8609 123.628 45.4245 124.044 45.1468C124.441 44.8492 124.916 44.7104 125.432 44.7104C125.947 44.7104 126.264 44.8294 126.522 45.0476C126.78 45.2856 126.918 45.5832 126.918 45.9601C126.918 46.3369 126.879 46.3171 126.78 46.456C126.681 46.5948 126.582 46.7138 126.463 46.7733C126.344 46.8527 126.284 46.8924 126.284 46.9122C126.284 46.9519 126.284 47.0114 126.344 47.0907C126.403 47.1701 126.482 47.2296 126.582 47.2891C126.681 47.3486 126.819 47.3684 126.978 47.3684C127.374 47.3684 127.711 47.2296 127.949 46.9717C128.187 46.694 128.306 46.3766 128.306 45.9799C128.306 45.365 128.009 44.9087 127.454 44.6112C126.879 44.3137 126.225 44.1748 125.491 44.1748C124.758 44.1748 123.906 44.3533 123.271 44.7302C122.637 45.0873 122.141 45.603 121.804 46.2576C121.467 46.9122 121.289 47.6858 121.289 48.5387C121.289 49.3917 121.467 50.1455 121.824 50.7802C122.181 51.415 122.657 51.9109 123.271 52.2679C123.866 52.625 124.54 52.7837 125.273 52.7837C126.007 52.7837 126.205 52.744 126.522 52.6647C126.859 52.5853 127.176 52.4465 127.454 52.2283C127.731 52.0101 128.048 51.7125 128.365 51.296C128.405 51.2563 128.425 51.2166 128.425 51.1571C128.425 51.0579 128.346 50.9587 128.207 50.8794L128.167 50.8992Z" fill="url(#paint9_linear_706_656)"/>
<path d="M136.155 44.7305C136.155 44.5321 136.036 44.4131 135.818 44.4131H129.535C129.297 44.4131 129.198 44.5123 129.198 44.7305L129.158 46.5355C129.158 46.6149 129.198 46.6744 129.257 46.7141C129.317 46.7537 129.396 46.7934 129.475 46.7934C129.555 46.7934 129.674 46.7934 129.773 46.7339C129.872 46.6744 129.911 46.6347 129.931 46.5554C129.991 46.1388 130.07 45.8016 130.149 45.5834C130.229 45.3652 130.348 45.1867 130.506 45.0677C130.665 44.9487 130.883 44.8891 131.18 44.8693H132.072V50.9987C132.072 51.2169 132.052 51.3954 132.013 51.5144C131.993 51.6533 131.913 51.7723 131.795 51.8516C131.676 51.9508 131.497 51.9905 131.24 51.9905C130.982 51.9905 131.041 51.9905 131.002 52.0301C130.962 52.05 130.922 52.1293 130.922 52.2682C130.922 52.3475 130.922 52.407 130.982 52.4665C131.021 52.526 131.081 52.5459 131.16 52.5459C131.715 52.526 132.25 52.5062 132.766 52.5062C133.281 52.5062 133.737 52.5062 134.292 52.5459C134.371 52.5459 134.431 52.526 134.47 52.4665C134.51 52.407 134.53 52.3475 134.53 52.2682C134.53 52.1492 134.49 52.0698 134.451 52.05C134.411 52.0301 134.352 52.0103 134.272 52.0103H134.193C133.935 52.0103 133.757 51.9706 133.638 51.8715C133.519 51.7921 133.44 51.6731 133.4 51.5342C133.38 51.3954 133.36 51.2367 133.341 51.0185V44.8892H134.213C134.51 44.8892 134.728 44.9685 134.887 45.0875C135.045 45.2065 135.164 45.3652 135.244 45.6033C135.323 45.8214 135.402 46.1587 135.462 46.5752C135.462 46.6546 135.521 46.6942 135.62 46.7537C135.719 46.7934 135.799 46.8133 135.898 46.8133C135.997 46.8133 136.056 46.7934 136.116 46.7339C136.175 46.6942 136.215 46.6149 136.215 46.5554L136.155 44.7503V44.7305Z" fill="url(#paint10_linear_706_656)"/>
<path d="M145.551 52.0298H145.472C145.214 52.0298 145.036 51.9901 144.917 51.8909C144.798 51.8116 144.719 51.6926 144.699 51.5537C144.679 51.4149 144.659 51.2562 144.639 51.038V45.9401C144.639 45.7219 144.659 45.5434 144.699 45.4244C144.738 45.2855 144.798 45.1863 144.917 45.0871C145.036 44.988 145.214 44.9483 145.472 44.9483C145.729 44.9483 145.67 44.9483 145.71 44.9086C145.749 44.8888 145.789 44.8094 145.789 44.6706C145.789 44.4921 145.71 44.3929 145.551 44.3929C145.313 44.3929 145.095 44.3929 144.897 44.4127C144.699 44.4127 144.54 44.4722 144.401 44.5516C144.263 44.6111 144.084 44.7499 143.906 44.9285C143.708 45.1268 143.45 45.4244 143.133 45.8211L139.446 50.4826V45.9203C139.446 45.7021 139.466 45.5235 139.505 45.4045C139.545 45.2657 139.604 45.1665 139.743 45.0673C139.862 44.9681 140.041 44.9285 140.298 44.9285C140.556 44.9285 140.496 44.9285 140.536 44.8888C140.576 44.869 140.615 44.7896 140.615 44.6508C140.615 44.5714 140.615 44.5119 140.556 44.4524C140.516 44.3929 140.457 44.373 140.378 44.373C139.823 44.3929 139.287 44.4127 138.772 44.4127C138.257 44.4127 137.801 44.4127 137.246 44.373C137.166 44.373 137.107 44.3929 137.067 44.4524C137.028 44.5119 137.008 44.5714 137.008 44.6508C137.008 44.7698 137.047 44.8491 137.067 44.8888C137.107 44.9086 137.166 44.9285 137.246 44.9285H137.325C137.583 44.9285 137.761 44.9681 137.88 45.0673C137.999 45.1467 138.078 45.2657 138.098 45.4045C138.138 45.5434 138.157 45.7021 138.157 45.9203V51.0181C138.157 51.2363 138.138 51.4149 138.098 51.5339C138.078 51.6727 137.999 51.7917 137.88 51.8711C137.761 51.9703 137.583 52.0099 137.325 52.0099C137.067 52.0099 137.127 52.0099 137.087 52.0496C137.047 52.0694 137.008 52.1488 137.008 52.2876C137.008 52.4662 137.087 52.5654 137.246 52.5654C137.464 52.5654 137.702 52.5653 137.999 52.5455C138.177 52.5455 138.316 52.486 138.455 52.3868C138.594 52.3075 138.732 52.1686 138.911 51.9901C139.089 51.8116 139.327 51.514 139.664 51.1173L143.371 46.4955V51.038C143.371 51.2562 143.351 51.4347 143.311 51.5537C143.272 51.6926 143.212 51.8116 143.093 51.8909C142.974 51.9901 142.796 52.0298 142.538 52.0298C142.28 52.0298 142.34 52.0298 142.3 52.0695C142.261 52.0893 142.221 52.1686 142.221 52.3075C142.221 52.3868 142.221 52.4463 142.28 52.5058C142.34 52.5654 142.38 52.5852 142.459 52.5852C143.014 52.5653 143.549 52.5455 144.045 52.5455C144.54 52.5455 145.016 52.5455 145.571 52.5852C145.65 52.5852 145.71 52.5654 145.749 52.5058C145.789 52.4463 145.809 52.3868 145.809 52.3075C145.809 52.1885 145.769 52.1091 145.749 52.0893C145.71 52.0694 145.65 52.0496 145.571 52.0496L145.551 52.0298Z" fill="url(#paint11_linear_706_656)"/>
<path d="M155.641 52.0295H155.561C155.304 52.0295 155.125 51.9898 155.006 51.8906C154.887 51.8113 154.808 51.6923 154.769 51.5534C154.729 51.4145 154.709 51.2559 154.709 51.0377V45.9398C154.709 45.7216 154.729 45.5431 154.769 45.4241C154.788 45.2852 154.868 45.186 155.006 45.0868C155.125 44.9877 155.324 44.948 155.561 44.948C155.799 44.948 155.76 44.948 155.799 44.9083C155.839 44.8885 155.879 44.8091 155.879 44.6703C155.879 44.5909 155.879 44.5314 155.819 44.4719C155.779 44.4124 155.72 44.3926 155.641 44.3926C155.086 44.4124 154.59 44.4323 154.114 44.4323C153.639 44.4323 153.064 44.4323 152.509 44.3926C152.449 44.3926 152.39 44.4124 152.35 44.4719C152.311 44.5314 152.291 44.5909 152.291 44.6703C152.291 44.7893 152.33 44.8686 152.37 44.9083C152.41 44.9282 152.469 44.948 152.568 44.948H152.648C152.885 44.948 153.084 44.9877 153.203 45.0868C153.322 45.1662 153.401 45.2852 153.421 45.4241C153.44 45.5629 153.46 45.7216 153.48 45.9398V48.2209H149.436V45.9398C149.436 45.7216 149.456 45.5431 149.496 45.4241C149.536 45.2852 149.595 45.186 149.714 45.0868C149.833 44.9877 150.011 44.948 150.269 44.948C150.527 44.948 150.467 44.948 150.507 44.9083C150.546 44.8885 150.566 44.8091 150.586 44.6703C150.586 44.5909 150.586 44.5314 150.527 44.4719C150.467 44.4124 150.428 44.3926 150.348 44.3926C149.793 44.4124 149.258 44.4323 148.743 44.4323C148.227 44.4323 147.791 44.4323 147.236 44.3926C147.157 44.3926 147.097 44.4124 147.058 44.4719C147.018 44.5314 146.998 44.5909 146.998 44.6703C146.998 44.7893 147.018 44.8686 147.058 44.9083C147.097 44.9282 147.157 44.948 147.236 44.948H147.315C147.573 44.948 147.752 44.9877 147.871 45.0868C147.989 45.1662 148.069 45.2852 148.089 45.4241C148.128 45.5629 148.148 45.7216 148.148 45.9398V51.0377C148.148 51.2559 148.128 51.4344 148.089 51.5534C148.069 51.6923 147.989 51.8113 147.871 51.8906C147.752 51.9898 147.573 52.0295 147.315 52.0295C147.058 52.0295 147.117 52.0295 147.058 52.0691C147.018 52.089 146.998 52.1683 146.979 52.3072C146.979 52.3865 146.979 52.446 147.038 52.5055C147.078 52.565 147.137 52.5849 147.216 52.5849C147.771 52.565 148.287 52.5452 148.743 52.5452C149.199 52.5452 149.793 52.5452 150.328 52.5849C150.408 52.5849 150.467 52.565 150.507 52.5055C150.546 52.446 150.566 52.3865 150.566 52.3072C150.566 52.1882 150.527 52.1088 150.507 52.089C150.467 52.0691 150.408 52.0493 150.328 52.0493H150.249C149.991 52.0493 149.813 52.0096 149.694 51.9105C149.575 51.8311 149.496 51.7121 149.476 51.5732C149.436 51.4344 149.436 51.2757 149.417 51.0575V48.7764H153.46V51.0575C153.46 51.2757 153.421 51.4542 153.401 51.5732C153.361 51.7121 153.302 51.8311 153.183 51.9105C153.064 52.0096 152.885 52.0493 152.628 52.0493C152.37 52.0493 152.43 52.0493 152.37 52.089C152.33 52.1088 152.291 52.1882 152.291 52.327C152.291 52.4064 152.311 52.4659 152.35 52.5254C152.39 52.5849 152.449 52.6047 152.509 52.6047C153.064 52.5849 153.599 52.565 154.095 52.565C154.59 52.565 155.086 52.565 155.641 52.6047C155.72 52.6047 155.779 52.5849 155.819 52.5254C155.859 52.4659 155.879 52.4064 155.879 52.327C155.879 52.208 155.839 52.1287 155.799 52.1088C155.76 52.089 155.7 52.0691 155.621 52.0691L155.641 52.0295Z" fill="url(#paint12_linear_706_656)"/>
<path d="M165.61 52.0298H165.531C165.273 52.0298 165.095 51.9901 164.976 51.8909C164.857 51.8116 164.777 51.6926 164.738 51.5537C164.718 51.4149 164.698 51.2562 164.678 51.038V45.9401C164.678 45.7219 164.698 45.5434 164.738 45.4244C164.777 45.2855 164.837 45.1863 164.976 45.0871C165.095 44.988 165.273 44.9483 165.531 44.9483C165.788 44.9483 165.729 44.9483 165.769 44.9086C165.808 44.8888 165.848 44.8094 165.848 44.6706C165.848 44.4921 165.769 44.3929 165.61 44.3929C165.372 44.3929 165.154 44.3929 164.956 44.4127C164.758 44.4127 164.599 44.4722 164.46 44.5516C164.322 44.6111 164.163 44.7499 163.965 44.9285C163.767 45.1268 163.509 45.4244 163.192 45.8211L159.505 50.4826V45.9203C159.505 45.7021 159.525 45.5235 159.564 45.4045C159.584 45.2657 159.663 45.1665 159.782 45.0673C159.901 44.9681 160.08 44.9285 160.337 44.9285C160.595 44.9285 160.536 44.9285 160.575 44.8888C160.615 44.869 160.654 44.7896 160.654 44.6508C160.654 44.5714 160.654 44.5119 160.595 44.4524C160.555 44.3929 160.496 44.373 160.417 44.373C159.862 44.3929 159.326 44.4127 158.811 44.4127C158.296 44.4127 157.84 44.4127 157.285 44.373C157.205 44.373 157.146 44.3929 157.106 44.4524C157.067 44.5119 157.047 44.5714 157.047 44.6508C157.047 44.7698 157.087 44.8491 157.106 44.8888C157.146 44.9086 157.205 44.9285 157.285 44.9285H157.364C157.622 44.9285 157.8 44.9681 157.919 45.0673C158.038 45.1467 158.117 45.2657 158.157 45.4045C158.177 45.5434 158.197 45.7021 158.216 45.9203V51.0181C158.216 51.2363 158.197 51.4149 158.157 51.5339C158.117 51.6727 158.058 51.7917 157.919 51.8711C157.8 51.9703 157.622 52.0099 157.364 52.0099C157.106 52.0099 157.166 52.0099 157.126 52.0496C157.087 52.0694 157.047 52.1488 157.047 52.2876C157.047 52.4662 157.126 52.5654 157.285 52.5654C157.503 52.5654 157.741 52.5653 158.038 52.5455C158.216 52.5455 158.355 52.486 158.494 52.3868C158.633 52.3075 158.771 52.1686 158.95 51.9901C159.128 51.8116 159.366 51.514 159.703 51.1173L163.41 46.4955V51.038C163.41 51.2562 163.39 51.4347 163.35 51.5537C163.311 51.6926 163.251 51.8116 163.132 51.8909C163.013 51.9901 162.835 52.0298 162.577 52.0298C162.32 52.0298 162.379 52.0298 162.339 52.0695C162.3 52.0893 162.26 52.1686 162.26 52.3075C162.26 52.3868 162.26 52.4463 162.32 52.5058C162.359 52.5654 162.419 52.5852 162.498 52.5852C163.053 52.5653 163.588 52.5455 164.084 52.5455C164.579 52.5455 165.055 52.5455 165.61 52.5852C165.689 52.5852 165.749 52.5654 165.788 52.5058C165.828 52.4463 165.848 52.3868 165.848 52.3075C165.848 52.1885 165.808 52.1091 165.788 52.0893C165.749 52.0694 165.689 52.0496 165.61 52.0496V52.0298Z" fill="url(#paint13_linear_706_656)"/>
<path d="M108.899 45.1473C108.899 45.0283 108.839 44.9688 108.7 44.9688H104.954C104.815 44.9688 104.756 45.0283 104.756 45.1473V46.2184C104.736 46.2581 104.756 46.2978 104.795 46.3374C104.835 46.3573 104.875 46.3771 104.914 46.3771C104.954 46.3771 105.033 46.3771 105.093 46.3374C105.152 46.3176 105.192 46.2779 105.192 46.2383C105.232 45.9804 105.271 45.8019 105.311 45.663C105.35 45.5242 105.43 45.425 105.529 45.3655C105.628 45.306 105.767 45.2663 105.925 45.2465H106.461V48.8963C106.461 49.0153 106.461 49.1343 106.421 49.1938C106.421 49.2732 106.361 49.3525 106.282 49.3922C106.203 49.4517 106.104 49.4715 105.945 49.4715C105.787 49.4715 105.826 49.4715 105.806 49.4715C105.787 49.4715 105.767 49.531 105.767 49.6104C105.767 49.6501 105.767 49.6897 105.806 49.7294C105.826 49.7691 105.866 49.7889 105.905 49.7889C106.242 49.7889 106.56 49.7691 106.857 49.7691C107.154 49.7691 107.432 49.7691 107.749 49.7889C107.789 49.7889 107.828 49.7889 107.848 49.7294C107.848 49.6897 107.888 49.6501 107.888 49.6104C107.888 49.531 107.888 49.4914 107.848 49.4715C107.828 49.4715 107.789 49.4517 107.749 49.4517H107.709C107.551 49.4517 107.452 49.4319 107.372 49.3724C107.293 49.3129 107.253 49.2533 107.234 49.174C107.234 49.0947 107.214 48.9955 107.194 48.8765V45.2266H107.709C107.888 45.2266 108.007 45.2663 108.106 45.3456C108.205 45.425 108.264 45.5242 108.324 45.6432C108.363 45.782 108.423 45.9606 108.463 46.2184C108.463 46.2581 108.502 46.2978 108.562 46.3176C108.621 46.3374 108.681 46.3573 108.74 46.3573C108.799 46.3573 108.839 46.3573 108.879 46.3176C108.918 46.2978 108.938 46.2581 108.938 46.1986L108.899 45.1274V45.1473Z" fill="url(#paint14_linear_706_656)"/>
<path d="M113.774 49.5111C113.774 49.5111 113.714 49.4913 113.675 49.4913H113.635C113.496 49.4913 113.377 49.4318 113.318 49.3326C113.239 49.2334 113.179 49.0946 113.1 48.8962L111.812 45.7225C111.712 45.4844 111.613 45.3059 111.494 45.2067C111.375 45.0877 111.257 45.0084 111.098 44.9687C110.939 44.929 110.741 44.9092 110.483 44.9092C110.226 44.9092 110.365 44.9092 110.325 44.9488C110.285 44.9488 110.285 45.0084 110.285 45.0679C110.285 45.1274 110.285 45.1869 110.305 45.2067C110.305 45.2067 110.384 45.2464 110.464 45.2464C110.602 45.2662 110.702 45.3059 110.761 45.3456C110.84 45.3852 110.86 45.4448 110.86 45.5439C110.86 45.6431 110.86 45.6431 110.82 45.7225L109.473 48.8962C109.473 48.9359 109.433 48.9954 109.393 49.0946C109.354 49.1938 109.294 49.293 109.215 49.3525C109.136 49.4318 109.036 49.4715 108.878 49.4715H108.818C108.779 49.4715 108.759 49.4715 108.719 49.4715C108.7 49.4715 108.68 49.531 108.68 49.6103C108.68 49.65 108.68 49.6897 108.719 49.7293C108.739 49.769 108.779 49.7889 108.818 49.7889C109.155 49.7889 109.393 49.769 109.552 49.769C109.71 49.769 110.067 49.769 110.384 49.7889C110.424 49.7889 110.464 49.7889 110.483 49.7293C110.503 49.6897 110.523 49.65 110.523 49.6103C110.523 49.531 110.523 49.4913 110.483 49.4715C110.483 49.4715 110.424 49.4516 110.384 49.4516H110.345C110.127 49.4516 109.988 49.4516 109.909 49.412C109.829 49.3921 109.79 49.3326 109.79 49.2334C109.79 49.1343 109.829 49.0549 109.889 48.8566C109.889 48.8566 109.889 48.8169 109.909 48.7772C109.909 48.7177 110.008 48.5392 110.127 48.2218H112.01L112.267 48.8566C112.327 49.0351 112.367 49.1541 112.367 49.2136C112.367 49.2731 112.327 49.3525 112.248 49.3921C112.168 49.4318 112.049 49.4516 111.891 49.4516C111.732 49.4516 111.812 49.4516 111.792 49.4715C111.772 49.4715 111.752 49.531 111.752 49.6103C111.752 49.65 111.752 49.6897 111.792 49.7293C111.792 49.769 111.851 49.7889 111.891 49.7889C112.208 49.7889 112.525 49.769 112.842 49.769C113.159 49.769 113.358 49.769 113.675 49.7889C113.714 49.7889 113.754 49.7889 113.774 49.7293C113.794 49.6897 113.814 49.65 113.814 49.6103C113.814 49.531 113.814 49.4913 113.774 49.4715V49.5111ZM110.265 47.9243L111.078 45.9605L111.851 47.9243H110.246H110.265Z" fill="url(#paint15_linear_706_656)"/>
<path d="M113.458 51.6934H105.093C104.983 51.6934 104.895 51.7822 104.895 51.8917V52.1893C104.895 52.2988 104.983 52.3876 105.093 52.3876H113.458C113.567 52.3876 113.656 52.2988 113.656 52.1893V51.8917C113.656 51.7822 113.567 51.6934 113.458 51.6934Z" fill="url(#paint16_linear_706_656)"/>
<path d="M72.6438 36.0023C72.5447 35.8436 72.3861 35.7444 72.1681 35.7444H72.1285C71.9699 35.7444 71.7717 35.9229 71.5536 36.28C71.3554 36.5577 71.177 36.7957 70.959 36.9544C70.7607 37.1329 70.5031 37.2123 70.1859 37.2123C69.4921 37.2123 68.9173 36.875 68.4416 36.2205C67.9857 35.5659 67.4307 34.5146 66.7765 33.0864C66.1621 31.6978 65.5674 30.5473 65.0322 29.6349C64.4772 28.7224 63.7636 27.929 62.8716 27.2744C61.9995 26.6198 60.9092 26.2826 59.6406 26.2826V26.1834C60.2551 26.0644 60.8696 25.7272 61.4246 25.1718C61.9995 24.6164 62.495 23.9221 62.8914 23.0493C62.9905 22.8509 63.1293 22.5336 63.3275 22.0377C63.7834 20.8872 64.2393 19.9945 64.6952 19.34C65.171 18.7052 65.8053 18.368 66.618 18.368C67.4307 18.368 67.4505 18.606 67.7676 19.1019C68.065 19.5978 68.2235 20.1532 68.2235 20.7681C68.2235 21.3831 68.3226 20.9467 68.501 20.9467C68.6794 20.9467 69.0362 20.8475 69.393 20.6293C69.7498 20.4111 70.067 20.1136 70.3445 19.697C70.622 19.3003 70.7607 18.8242 70.7607 18.3085C70.7607 17.4952 70.4436 16.7613 69.7895 16.0868C69.1552 15.4124 68.283 15.0752 67.2126 15.0752C66.3206 15.1149 65.5674 15.4322 64.9331 16.0075C64.2988 16.5827 63.7834 17.2373 63.387 17.9911C62.9905 18.7449 62.5545 19.697 62.0787 20.8475C61.7021 21.7798 61.4246 22.4145 61.266 22.7518C60.7308 23.7634 60.1164 24.4973 59.383 24.9734C58.6495 25.4495 57.9161 25.6875 57.1431 25.6875H55.4582V20.0144C55.478 19.4193 55.5375 18.9432 55.6168 18.5663C55.6961 18.1895 55.9141 17.8919 56.2511 17.634C56.5881 17.3762 57.1034 17.2572 57.7972 17.2572C58.491 17.2572 58.372 17.2175 58.491 17.158C58.6297 17.0786 58.709 16.8803 58.7288 16.5034C58.7288 16.2852 58.6694 16.1067 58.5703 15.948C58.4513 15.7893 58.2928 15.7099 58.0945 15.7099C56.5484 15.7893 55.042 15.8091 53.6148 15.8091C52.1876 15.8091 50.8793 15.7695 49.3531 15.7099C49.135 15.7099 48.9764 15.7893 48.8773 15.948C48.7584 16.1067 48.7188 16.2852 48.7188 16.5034C48.7386 16.8406 48.798 17.039 48.917 17.1381C49.0161 17.2175 49.1747 17.2572 49.3927 17.2572H49.6107C50.3045 17.2572 50.8199 17.3762 51.1569 17.634C51.4938 17.8919 51.7119 18.1895 51.811 18.5465C51.9101 18.9036 51.9695 19.3995 51.9894 20.0144V34.2368C51.9695 34.8518 51.9101 35.3477 51.811 35.7047C51.7119 36.0618 51.4938 36.3593 51.1569 36.6172C50.8199 36.8552 50.3045 36.9941 49.6107 36.9941C48.917 36.9941 49.0755 37.0337 48.9566 37.1131C48.8179 37.1924 48.7386 37.3908 48.7188 37.7478C48.7188 37.966 48.7782 38.1446 48.8773 38.3032C48.9764 38.4619 49.135 38.5413 49.3531 38.5413C50.8992 38.4619 52.3263 38.4223 53.6544 38.4223C54.9825 38.4223 56.5682 38.4619 58.0945 38.5413C58.3126 38.5413 58.4711 38.4619 58.5703 38.3032C58.6694 38.1446 58.7288 37.966 58.7288 37.7478C58.709 37.4106 58.6297 37.2123 58.5306 37.1131C58.4315 37.0337 58.2531 36.9941 58.0152 36.9941H57.7972C57.1034 36.9941 56.5881 36.875 56.2511 36.6172C55.9141 36.3593 55.7159 36.0618 55.6168 35.6849C55.5375 35.308 55.478 34.8319 55.4582 34.2368V27.1157H56.3898C57.4206 27.1157 58.2928 27.3537 59.0063 27.8496C59.7199 28.3455 60.2948 28.9604 60.7507 29.6745C61.1868 30.4085 61.7021 31.3805 62.277 32.6301C62.8716 33.9591 63.4266 35.0501 63.942 35.8634C64.4574 36.6767 65.1511 37.371 66.0035 37.9462C66.8558 38.5016 67.9262 38.7793 69.1948 38.7793C70.4634 38.7793 70.7211 38.6008 71.4347 38.2239C72.1483 37.847 72.5645 37.2916 72.7033 36.518C72.7429 36.2998 72.7033 36.1213 72.6042 35.9428L72.6438 36.0023Z" fill="url(#paint17_linear_706_656)"/>
<path d="M98.8281 37.0341H98.6101C97.9163 37.0341 97.401 36.9151 97.064 36.6572C96.727 36.3994 96.5288 36.1018 96.4297 35.7249C96.3504 35.348 96.2909 34.872 96.2711 34.2769V20.0544C96.2909 19.4593 96.3504 18.9833 96.4297 18.6064C96.509 18.2295 96.727 17.932 97.064 17.6741C97.401 17.4162 97.9163 17.2972 98.6101 17.2972C99.3039 17.2972 99.1651 17.2575 99.284 17.198C99.403 17.1187 99.4823 16.9203 99.5021 16.5434C99.5021 16.0277 99.284 15.75 98.848 15.75C98.1938 15.75 97.5992 15.7698 97.0243 15.8293C96.4891 15.869 96.0332 16.0079 95.6368 16.1864C95.2404 16.3848 94.7845 16.7418 94.2691 17.2575C93.7339 17.7931 93.0203 18.6262 92.1283 19.7767L81.8606 32.7495V20.0544C81.8804 19.4593 81.9398 18.9833 82.0191 18.6064C82.0984 18.2295 82.3165 17.932 82.6534 17.6741C82.9904 17.4162 83.5058 17.2972 84.1995 17.2972C84.8933 17.2972 84.7546 17.2575 84.8735 17.198C84.9924 17.1187 85.0717 16.9203 85.0915 16.5434C85.0915 16.3252 85.0321 16.1467 84.933 15.988C84.8338 15.8293 84.6753 15.75 84.4572 15.75C82.9111 15.8293 81.4245 15.8492 79.9775 15.8492C78.5305 15.8492 77.2817 15.8095 75.7554 15.75C75.5374 15.75 75.3788 15.8293 75.2797 15.988C75.1806 16.1467 75.1211 16.3252 75.1211 16.5434C75.1409 16.8807 75.2004 17.079 75.2995 17.1782C75.3986 17.2575 75.5572 17.2972 75.795 17.2972H76.0131C76.7068 17.2972 77.2222 17.4162 77.5592 17.6741C77.8962 17.932 78.0944 18.2295 78.1935 18.6064C78.2728 18.9833 78.3322 19.4593 78.3521 20.0544V34.2769C78.3322 34.872 78.2728 35.3679 78.1935 35.7249C78.1142 36.1018 77.8962 36.3994 77.5592 36.6572C77.2222 36.8953 76.7068 37.0341 76.0131 37.0341C75.3193 37.0341 75.4581 37.0738 75.3391 37.1531C75.2202 37.2325 75.1409 37.4308 75.1211 37.7879C75.1211 38.2838 75.3391 38.5615 75.7752 38.5813C76.3699 38.6012 77.0636 38.5813 77.8565 38.502C78.3322 38.4425 78.7485 38.3235 79.1251 38.0854C79.5017 37.8474 79.918 37.4903 80.4136 36.9746C80.9091 36.4589 81.6029 35.6456 82.5147 34.5149L92.8221 21.6215V34.2769C92.8023 34.872 92.7428 35.3679 92.6635 35.7249C92.5842 36.1018 92.3662 36.3994 92.0292 36.6572C91.6922 36.8953 91.1769 37.0341 90.4831 37.0341C89.7893 37.0341 89.9479 37.0738 89.8091 37.1531C89.6704 37.2325 89.5911 37.4308 89.5713 37.7879C89.5713 38.0061 89.6308 38.1846 89.7299 38.3433C89.829 38.502 89.9875 38.5813 90.2056 38.5813C91.7517 38.502 93.2383 38.4623 94.6457 38.4623C96.0531 38.4623 97.3415 38.502 98.8678 38.5813C99.0858 38.5813 99.2444 38.502 99.3435 38.3433C99.4426 38.1846 99.5021 38.0061 99.5021 37.7879C99.4823 37.4507 99.4228 37.2523 99.3237 37.1531C99.2246 37.0738 99.066 37.0341 98.8281 37.0341Z" fill="url(#paint18_linear_706_656)"/>
<path d="M126.976 37.0341H126.758C126.064 37.0341 125.548 36.9151 125.192 36.6572C124.855 36.3994 124.637 36.1018 124.538 35.7249C124.458 35.348 124.399 34.872 124.379 34.2769V20.0544C124.399 19.4593 124.458 18.9833 124.538 18.6064C124.617 18.2295 124.835 17.932 125.192 17.6741C125.529 17.4162 126.064 17.2972 126.758 17.2972C127.451 17.2972 127.293 17.2575 127.432 17.198C127.57 17.1187 127.65 16.9203 127.669 16.5434C127.669 16.3252 127.61 16.1467 127.511 15.988C127.412 15.8293 127.253 15.75 127.035 15.75C125.509 15.8293 124.082 15.8492 122.773 15.8492C121.465 15.8492 119.84 15.8095 118.294 15.75C118.095 15.75 117.957 15.8293 117.818 15.988C117.699 16.1467 117.64 16.3252 117.64 16.5434C117.659 16.8807 117.739 17.079 117.838 17.1782C117.937 17.2575 118.115 17.2972 118.353 17.2972H118.571C119.265 17.2972 119.78 17.4162 120.117 17.6741C120.454 17.932 120.652 18.2295 120.752 18.6064C120.831 18.9833 120.89 19.4593 120.91 20.0544V26.402H109.671V20.0544C109.691 19.4593 109.75 18.9833 109.83 18.6064C109.909 18.2295 110.127 17.932 110.464 17.6741C110.801 17.4162 111.316 17.2972 112.01 17.2972C112.704 17.2972 112.565 17.2575 112.684 17.198C112.803 17.1187 112.882 16.9203 112.902 16.5434C112.902 16.3252 112.843 16.1467 112.743 15.988C112.644 15.8293 112.486 15.75 112.268 15.75C110.722 15.8293 109.235 15.8492 107.788 15.8492C106.341 15.8492 105.112 15.8095 103.566 15.75C103.348 15.75 103.189 15.8293 103.09 15.988C102.991 16.1467 102.932 16.3252 102.932 16.5434C102.951 16.8807 103.011 17.079 103.11 17.1782C103.209 17.2575 103.368 17.2972 103.606 17.2972H103.824C104.517 17.2972 105.033 17.4162 105.37 17.6741C105.707 17.932 105.905 18.2295 106.004 18.6064C106.083 18.9833 106.143 19.4593 106.163 20.0544V34.2769C106.143 34.872 106.083 35.3679 106.004 35.7249C105.925 36.1018 105.707 36.3994 105.37 36.6572C105.033 36.8953 104.517 37.0341 103.824 37.0341C103.13 37.0341 103.269 37.0738 103.15 37.1531C103.031 37.2325 102.951 37.4308 102.932 37.7879C102.932 38.0061 102.991 38.1846 103.09 38.3433C103.209 38.502 103.368 38.5813 103.566 38.5813C105.112 38.502 106.539 38.4623 107.828 38.4623C109.116 38.4623 110.741 38.502 112.268 38.5813C112.486 38.5813 112.644 38.502 112.743 38.3433C112.862 38.1846 112.902 38.0061 112.902 37.7879C112.882 37.4507 112.823 37.2523 112.724 37.1531C112.625 37.0738 112.466 37.0341 112.228 37.0341H112.01C111.316 37.0341 110.801 36.9151 110.464 36.6572C110.127 36.3994 109.929 36.1018 109.83 35.7249C109.75 35.348 109.691 34.872 109.671 34.2769V27.9294H120.91V34.2769C120.89 34.872 120.831 35.3679 120.752 35.7249C120.672 36.1018 120.454 36.3994 120.117 36.6572C119.78 36.8953 119.265 37.0341 118.571 37.0341C117.877 37.0341 117.996 37.0738 117.877 37.1531C117.739 37.2325 117.659 37.4308 117.64 37.7879C117.64 38.0061 117.699 38.1846 117.818 38.3433C117.937 38.502 118.095 38.5813 118.294 38.5813C119.84 38.502 121.326 38.4623 122.734 38.4623C124.141 38.4623 125.509 38.502 127.035 38.5813C127.253 38.5813 127.412 38.502 127.511 38.3433C127.61 38.1846 127.669 38.0061 127.669 37.7879C127.65 37.4507 127.57 37.2523 127.471 37.1531C127.352 37.0738 127.194 37.0341 126.995 37.0341H126.976Z" fill="url(#paint19_linear_706_656)"/>
<path d="M139.959 37.0341H139.741C139.047 37.0341 138.531 36.9151 138.194 36.6572C137.857 36.3994 137.659 36.1018 137.56 35.7249C137.481 35.348 137.421 34.872 137.402 34.2769V20.0544C137.421 19.4593 137.481 18.9833 137.56 18.6064C137.639 18.2295 137.857 17.932 138.194 17.6741C138.531 17.4162 139.047 17.2972 139.741 17.2972C140.434 17.2972 140.315 17.2575 140.434 17.198C140.553 17.1385 140.652 16.9203 140.672 16.5434C140.672 16.3252 140.613 16.1467 140.514 15.988C140.415 15.8293 140.256 15.75 140.038 15.75C138.492 15.8293 137.005 15.8492 135.558 15.8492C134.111 15.8492 132.843 15.8095 131.296 15.75C131.078 15.75 130.92 15.8293 130.821 15.988C130.722 16.1467 130.662 16.3252 130.662 16.5434C130.682 16.8807 130.761 17.079 130.86 17.1782C130.959 17.2575 131.118 17.2972 131.336 17.2972H131.554C132.248 17.2972 132.763 17.4162 133.1 17.6741C133.437 17.932 133.655 18.2295 133.754 18.5866C133.853 18.9436 133.913 19.4395 133.933 20.0544V34.2769C133.913 34.8918 133.853 35.3877 133.754 35.7448C133.655 36.1018 133.437 36.3994 133.1 36.6572C132.763 36.8953 132.248 37.0341 131.554 37.0341C130.86 37.0341 131.019 37.0738 130.9 37.1531C130.761 37.2325 130.682 37.4308 130.662 37.7879C130.662 38.0061 130.722 38.1846 130.821 38.3433C130.94 38.502 131.098 38.5813 131.296 38.5813C132.843 38.502 134.29 38.4623 135.598 38.4623C136.906 38.4623 138.512 38.502 140.038 38.5813C140.256 38.5813 140.415 38.502 140.514 38.3433C140.633 38.1846 140.672 38.0061 140.672 37.7879C140.652 37.4507 140.593 37.2523 140.474 37.1531C140.375 37.0738 140.196 37.0341 139.959 37.0341Z" fill="url(#paint20_linear_706_656)"/>
<path d="M165.132 37.0341H164.914C164.221 37.0341 163.705 36.9151 163.368 36.6572C163.031 36.3994 162.833 36.1018 162.734 35.7249C162.655 35.348 162.595 34.872 162.575 34.2769V20.0544C162.595 19.4593 162.655 18.9833 162.734 18.6064C162.813 18.2295 163.031 17.932 163.368 17.6741C163.705 17.4162 164.221 17.2972 164.914 17.2972C165.608 17.2972 165.489 17.2575 165.608 17.198C165.747 17.1187 165.826 16.9203 165.846 16.5434C165.846 16.3252 165.786 16.1467 165.687 15.988C165.588 15.8293 165.43 15.75 165.212 15.75C163.685 15.8293 162.258 15.8492 160.91 15.8492H155.36L154.607 15.8095C152.585 15.8095 150.722 16.2657 149.017 17.1782C147.312 18.0907 146.48 19.6577 146.48 21.8992C146.48 24.1407 147.075 24.8151 148.264 25.8466C149.81 27.0367 151.574 27.6516 153.556 27.7112V27.8302C152.684 28.1674 151.891 28.6633 151.237 29.3377C150.563 30.0121 149.949 30.8254 149.374 31.7776L148.403 33.4636C147.709 34.753 147.114 35.7051 146.619 36.32C146.123 36.9349 145.528 37.2325 144.835 37.2325C144.141 37.2325 144.24 37.1531 144.062 36.9944C143.883 36.8358 143.685 36.6176 143.467 36.32C143.328 36.1217 143.209 35.9828 143.11 35.8836C143.011 35.7844 142.912 35.7448 142.793 35.7448C142.674 35.7448 142.496 35.8043 142.397 35.9431C142.297 36.082 142.258 36.2407 142.258 36.4192V36.5581C142.416 37.3118 142.852 37.8871 143.546 38.264C144.24 38.6408 144.973 38.8194 145.766 38.8194C147.134 38.8194 148.264 38.5417 149.156 38.0061C150.048 37.4507 150.742 36.7961 151.237 36.0225C151.733 35.2489 152.308 34.1976 152.981 32.8487C153.477 31.8371 153.933 31.0436 154.349 30.4089C154.765 29.7741 155.301 29.2782 155.935 28.8617C156.569 28.4649 157.342 28.2467 158.234 28.2467H159.087V34.2571C159.067 34.872 159.007 35.3679 158.908 35.7249C158.809 36.082 158.591 36.3795 158.254 36.6374C157.917 36.8754 157.402 37.0143 156.708 37.0143C156.014 37.0143 156.173 37.054 156.034 37.1333C155.895 37.2126 155.816 37.411 155.796 37.7681C155.796 37.9863 155.856 38.1648 155.955 38.3235C156.054 38.4822 156.212 38.5615 156.43 38.5615C157.977 38.4822 159.483 38.4425 160.91 38.4425C162.337 38.4425 163.646 38.4822 165.172 38.5615C165.39 38.5615 165.549 38.4822 165.648 38.3235C165.747 38.1648 165.806 37.9863 165.806 37.7681C165.786 37.4308 165.707 37.2325 165.608 37.1333C165.489 37.054 165.331 37.0143 165.093 37.0143L165.132 37.0341ZM159.087 26.9376H157.263C155.499 26.9376 153.933 26.6598 152.545 26.0846C151.178 25.5094 150.484 24.2002 150.484 22.1769C150.484 20.1536 150.999 19.4197 152.05 18.5866C153.081 17.7336 154.567 17.317 156.47 17.317C158.373 17.317 157.759 17.3766 158.115 17.4757C158.472 17.5948 158.73 17.8328 158.869 18.2097C159.007 18.5866 159.087 19.2213 159.087 20.0743V26.9574V26.9376Z" fill="url(#paint21_linear_706_656)"/>
<defs>
<linearGradient id="paint0_linear_706_656" x1="216.693" y1="-34.7525" x2="-47.6675" y2="74.431" gradientUnits="userSpaceOnUse">
<stop stop-color="#CE9D67"/>
<stop offset="0.5" stop-color="#FFE1CD"/>
<stop offset="1" stop-color="#CE9D67"/>
</linearGradient>
<linearGradient id="paint1_linear_706_656" x1="212.511" y1="-44.8692" x2="-51.8497" y2="64.2945" gradientUnits="userSpaceOnUse">
<stop stop-color="#CE9D67"/>
<stop offset="0.5" stop-color="#FFE1CD"/>
<stop offset="1" stop-color="#CE9D67"/>
</linearGradient>
<linearGradient id="paint2_linear_706_656" x1="220.278" y1="-20.1333" x2="-44.0823" y2="89.0303" gradientUnits="userSpaceOnUse">
<stop stop-color="#CE9D67"/>
<stop offset="0.5" stop-color="#FFE1CD"/>
<stop offset="1" stop-color="#CE9D67"/>
</linearGradient>
<linearGradient id="paint3_linear_706_656" x1="221.647" y1="-16.8209" x2="-42.7139" y2="92.3626" gradientUnits="userSpaceOnUse">
<stop stop-color="#CE9D67"/>
<stop offset="0.5" stop-color="#FFE1CD"/>
<stop offset="1" stop-color="#CE9D67"/>
</linearGradient>
<linearGradient id="paint4_linear_706_656" x1="223.232" y1="-12.9922" x2="-41.129" y2="96.1915" gradientUnits="userSpaceOnUse">
<stop stop-color="#CE9D67"/>
<stop offset="0.5" stop-color="#FFE1CD"/>
<stop offset="1" stop-color="#CE9D67"/>
</linearGradient>
<linearGradient id="paint5_linear_706_656" x1="224.698" y1="-9.44183" x2="-39.6821" y2="99.7219" gradientUnits="userSpaceOnUse">
<stop stop-color="#CE9D67"/>
<stop offset="0.5" stop-color="#FFE1CD"/>
<stop offset="1" stop-color="#CE9D67"/>
</linearGradient>
<linearGradient id="paint6_linear_706_656" x1="225.768" y1="-6.8232" x2="-38.5923" y2="102.36" gradientUnits="userSpaceOnUse">
<stop stop-color="#CE9D67"/>
<stop offset="0.5" stop-color="#FFE1CD"/>
<stop offset="1" stop-color="#CE9D67"/>
</linearGradient>
<linearGradient id="paint7_linear_706_656" x1="226.839" y1="-4.22468" x2="-37.5217" y2="104.959" gradientUnits="userSpaceOnUse">
<stop stop-color="#CE9D67"/>
<stop offset="0.5" stop-color="#FFE1CD"/>
<stop offset="1" stop-color="#CE9D67"/>
</linearGradient>
<linearGradient id="paint8_linear_706_656" x1="229.635" y1="2.51861" x2="-34.7257" y2="111.683" gradientUnits="userSpaceOnUse">
<stop stop-color="#CE9D67"/>
<stop offset="0.5" stop-color="#FFE1CD"/>
<stop offset="1" stop-color="#CE9D67"/>
</linearGradient>
<linearGradient id="paint9_linear_706_656" x1="230.627" y1="4.93904" x2="-33.7338" y2="114.123" gradientUnits="userSpaceOnUse">
<stop stop-color="#CE9D67"/>
<stop offset="0.5" stop-color="#FFE1CD"/>
<stop offset="1" stop-color="#CE9D67"/>
</linearGradient>
<linearGradient id="paint10_linear_706_656" x1="231.598" y1="7.26012" x2="-32.7826" y2="116.424" gradientUnits="userSpaceOnUse">
<stop stop-color="#CE9D67"/>
<stop offset="0.5" stop-color="#FFE1CD"/>
<stop offset="1" stop-color="#CE9D67"/>
</linearGradient>
<linearGradient id="paint11_linear_706_656" x1="232.986" y1="10.612" x2="-31.3948" y2="119.795" gradientUnits="userSpaceOnUse">
<stop stop-color="#CE9D67"/>
<stop offset="0.5" stop-color="#FFE1CD"/>
<stop offset="1" stop-color="#CE9D67"/>
</linearGradient>
<linearGradient id="paint12_linear_706_656" x1="234.433" y1="14.1624" x2="-29.9279" y2="123.326" gradientUnits="userSpaceOnUse">
<stop stop-color="#CE9D67"/>
<stop offset="0.5" stop-color="#FFE1CD"/>
<stop offset="1" stop-color="#CE9D67"/>
</linearGradient>
<linearGradient id="paint13_linear_706_656" x1="235.899" y1="17.6935" x2="-28.4622" y2="126.877" gradientUnits="userSpaceOnUse">
<stop stop-color="#CE9D67"/>
<stop offset="0.5" stop-color="#FFE1CD"/>
<stop offset="1" stop-color="#CE9D67"/>
</linearGradient>
<linearGradient id="paint14_linear_706_656" x1="227.473" y1="-2.71723" x2="-36.8873" y2="106.466" gradientUnits="userSpaceOnUse">
<stop stop-color="#CE9D67"/>
<stop offset="0.5" stop-color="#FFE1CD"/>
<stop offset="1" stop-color="#CE9D67"/>
</linearGradient>
<linearGradient id="paint15_linear_706_656" x1="228.285" y1="-0.713825" x2="-36.0755" y2="108.45" gradientUnits="userSpaceOnUse">
<stop stop-color="#CE9D67"/>
<stop offset="0.5" stop-color="#FFE1CD"/>
<stop offset="1" stop-color="#CE9D67"/>
</linearGradient>
<linearGradient id="paint16_linear_706_656" x1="229.535" y1="2.3015" x2="-34.8259" y2="111.485" gradientUnits="userSpaceOnUse">
<stop stop-color="#CE9D67"/>
<stop offset="0.5" stop-color="#FFE1CD"/>
<stop offset="1" stop-color="#CE9D67"/>
</linearGradient>
<linearGradient id="paint17_linear_706_656" x1="213.578" y1="-36.3399" x2="-50.7829" y2="72.8238" gradientUnits="userSpaceOnUse">
<stop stop-color="#CE9D67"/>
<stop offset="0.5" stop-color="#FFE1CD"/>
<stop offset="1" stop-color="#CE9D67"/>
</linearGradient>
<linearGradient id="paint18_linear_706_656" x1="217.562" y1="-26.6992" x2="-46.7992" y2="82.4645" gradientUnits="userSpaceOnUse">
<stop stop-color="#CE9D67"/>
<stop offset="0.5" stop-color="#FFE1CD"/>
<stop offset="1" stop-color="#CE9D67"/>
</linearGradient>
<linearGradient id="paint19_linear_706_656" x1="221.645" y1="-16.8209" x2="-42.7155" y2="92.3428" gradientUnits="userSpaceOnUse">
<stop stop-color="#CE9D67"/>
<stop offset="0.5" stop-color="#FFE1CD"/>
<stop offset="1" stop-color="#CE9D67"/>
</linearGradient>
<linearGradient id="paint20_linear_706_656" x1="224.618" y1="-9.62035" x2="-39.7426" y2="99.5632" gradientUnits="userSpaceOnUse">
<stop stop-color="#CE9D67"/>
<stop offset="0.5" stop-color="#FFE1CD"/>
<stop offset="1" stop-color="#CE9D67"/>
</linearGradient>
<linearGradient id="paint21_linear_706_656" x1="228.008" y1="-1.42805" x2="-36.373" y2="107.736" gradientUnits="userSpaceOnUse">
<stop stop-color="#CE9D67"/>
<stop offset="0.5" stop-color="#FFE1CD"/>
<stop offset="1" stop-color="#CE9D67"/>
</linearGradient>
</defs>
</svg>
